<?xml version="1.0" standalone="no"?>
<!DOCTYPE svg PUBLIC "-//W3C//DTD SVG 1.1//EN" "http://www.w3.org/Graphics/SVG/1.1/DTD/svg11.dtd" >
<!--
2013-9-30: Created.
-->
<svg>
<metadata>
Created by iconfont
</metadata>
<defs>

<font id="iconfont" horiz-adv-x="1024" >
  <font-face
    font-family="iconfont"
    font-weight="500"
    font-stretch="normal"
    units-per-em="1024"
    ascent="896"
    descent="-128"
  />
    <missing-glyph />
    
    <glyph glyph-name="icon" unicode="&#58941;" d="M906.226957-38.573135 118.77797-38.573135c-29.658675 0-53.689959 24.046672-53.689959 53.68776L65.088011 480.40479c0 29.631878 24.031284 53.67855 53.689959 53.67855 0 0 107.379919 0 161.069878 0 53.688936 0 71.586272 107.375519 107.378896 107.375519 35.26867 0 197.263655 0 232.655127 0 53.218196 0 73.561333-107.375519 125.293628-107.375519 37.80248 0 161.052482 0 161.052482 0 29.640255 0 53.688936-24.047696 53.688936-53.67855l0-465.291189C959.915894-14.526463 935.867213-38.573135 906.226957-38.573135L906.226957-38.573135zM512.501952 480.40479c-118.599908 0-214.741418-96.14678-214.741418-214.740806 0-118.639051 96.14151-214.794018 214.741418-214.794018 118.617305 0 214.758815 96.15599 214.758815 214.794018C727.260767 384.259032 631.119257 480.40479 512.501952 480.40479L512.501952 480.40479zM772.00257 480.40479c-14.821151 0-26.828095-12.014638-26.828095-26.861788 0-14.81952 12.00592-26.825972 26.828095-26.825972 14.819104 0 26.861865 12.006452 26.861865 26.825972C798.864435 468.391175 786.822698 480.40479 772.00257 480.40479L772.00257 480.40479zM512.501952 104.559772c-88.958629 0-161.068855 72.14104-161.068855 161.105235 0 88.928379 72.110226 161.054069 161.068855 161.054069 88.940209 0 161.068855-72.124667 161.068855-161.054069C673.570807 176.700813 601.442161 104.559772 512.501952 104.559772L512.501952 104.559772zM154.570595 587.772123c0 9.883091 8.022026 17.904789 17.896312 17.904789l53.689959 0c9.891683 0 17.913709-8.021697 17.913709-17.904789 0-9.873882 0-17.904789 0-17.904789l-89.499981 0C154.570595 569.867334 154.570595 577.897218 154.570595 587.772123L154.570595 587.772123z"  horiz-adv-x="1024" />

    
    <glyph glyph-name="iconfontchaping" unicode="&#58880;" d="M815.347 473.076c-1.041 17.324 18.908 48.27 18.908 66.117 0 24.649-38.314 47.227-47.227 65.598-6.311 12.073 1.041 42.5-4.189 55.102-9.443 22.035-47.765 56.657-70.311 63.513-70.841 22.035-295.975 0-295.975 0l-246.113-33.599v-346.858h80.286c23.617-5.771 72.95-57.2 133.809-218.302 9.965-26.234 28.861-40.944 50.375-58.238 36.206-28.352 62.979-68.751 71.894-213.573 1.575-19.946 61.93-16.8 94.993 27.803 26.755 36.724 30.427 107.577 8.913 161.106-14.16 36.206-67.171 121.23-48.27 155.325 0 0 194.18-7.344 232.479 8.39 24.142 9.965 59.296 62.458 57.725 89.213-1.041 14.688-26.755 36.206-28.861 50.895-2.112 18.367 28.861 49.329 28.861 68.219 0 17.324-35.694 41.459-37.263 59.296v0zM815.347 473.076z"  horiz-adv-x="1024" />

    
    <glyph glyph-name="xiugaimima" unicode="&#58898;" d="M561.203386 115.48551C561.203386 88.132576 538.882304 65.962112 511.343552 65.962112 483.813914 65.962112 461.492838 88.132576 461.492838 115.48551L461.492838 284.305395C461.492838 311.65833 483.813914 333.828794 511.343552 333.828794 538.882304 333.828794 561.203386 311.65833 561.203386 284.305395L561.203386 115.48551ZM861.967827 527.781843 317.73305 527.781843 317.73305 618.185152C317.73305 724.117747 404.508864 810.308032 511.161114 810.308032 617.822483 810.308032 704.598298 724.117747 704.598298 618.185152 704.598298 594.519744 723.909178 575.339168 747.735354 575.339168 771.55241 575.339168 790.87241 594.519744 790.87241 618.185152 790.87241 771.367021 665.392742 896 511.161114 896 356.929485 896 231.458938 771.367021 231.458938 618.185152L231.458938 527.781843 160.71927 527.781843C124.98 527.781843 96 499.006451 96 463.499277L96-63.708371C96-99.215546 124.98-128 160.71927-128L861.967827-128C897.716218-128 926.696218-99.215546 926.696218-63.708371L926.696218 463.499277C926.696218 499.006451 897.716218 527.781843 861.967827 527.781843L861.967827 527.781843Z"  horiz-adv-x="1024" />

    
    <glyph glyph-name="2zuzhijiagou" unicode="&#59189;" d="M871.64915 185.339428l0 81.429591L535.831778 266.769019l0-81.429591 73.091692 0c21.427008 0 38.994106-17.848507 38.994106-39.069831l0-1.101077 0-192.483896c0-21.467941-17.567098-39.035038-38.994106-39.035038l-1.193175 0L415.592276-86.350414c-21.461801 0-39.293935 17.573237-39.293935 39.035038l0 1.139963L376.298342 146.269597c0 21.220301 17.832134 39.069831 39.293935 39.069831l0.865717 0 71.926146 0 0 81.429591L161.022347 266.769019l0-81.429591 72.946382 0c21.314445 0 39.1036-17.848507 39.1036-39.069831l0-1.101077 0-192.483896c0-21.467941-17.790178-39.035038-39.1036-39.035038l-1.047866 0L40.494273-86.350414c-21.832238 0-39.370683 17.573237-39.370683 39.035038l0 1.139963L1.12359 146.269597c0 21.220301 17.538445 39.069831 39.370683 39.069831l1.040702 0 72.050989 0L113.585965 290.172031l0 0.305969c0 13.101389 10.576893 23.702841 23.362081 23.702841l351.441211 0 0 164.55787L353.425402 478.738711c-21.838378 0-39.111786 17.873066-39.111786 39.593763l0 0.836041L314.313615 815.315376c0 21.720697 17.273409 39.035038 39.111786 39.035038l1.040702 0 316.296783 0c21.874193 0 39.411615-17.314341 39.411615-39.035038l0-1.11745 0-295.865451c0-21.726837-17.537422-39.593763-39.411615-39.593763l-1.00591 0L535.837918 478.738711l0-164.55787 359.290993 0 0.522909 0c12.785188 0 23.103184-10.601452 23.103184-23.702841l0-105.138572 64.937988 0c21.615297 0 39.182394-17.848507 39.182394-39.069831l0-1.101077 0-192.483896c0-21.467941-17.567098-39.035038-39.182394-39.035038l-1.011027 0L790.515295-86.350414c-22.097274 0-39.405475 17.573237-39.405475 39.035038l0 1.139963L751.10982 146.269597c0 21.220301 17.308201 39.069831 39.405475 39.069831l0.747014 0L871.64915 185.339428 871.64915 185.339428 871.64915 185.339428zM871.64915 185.339428"  horiz-adv-x="1024" />

    
    <glyph glyph-name="tianjiabumen" unicode="&#58929;" d="M488.4992 624.9984C549.9904 624.9984 599.7568 674.2528 599.7568 734.9248 599.7568 795.648 549.9904 844.8 488.4992 844.8 427.1104 844.8 377.2928 795.648 377.2928 734.9248 377.2928 674.2528 427.1104 624.9984 488.4992 624.9984ZM761.3952 605.4912C817.8176 605.4912 863.5392 650.752 863.5392 706.4576 863.5392 762.2656 817.8176 807.424 761.3952 807.424 704.8704 807.424 659.1488 762.2656 659.1488 706.4576 659.1488 650.752 704.8704 605.4912 761.3952 605.4912ZM264.8064 500.6848C264.8064 531.5584 274.1248 560.384 290.0992 584.4992 282.88 586.24 275.3536 587.1104 267.6736 587.1104L148.224 587.1104C94.8224 587.1104 51.2 543.9488 51.2 491.264L51.2 340.4288C51.2 303.5648 72.6016 271.36 103.68 255.3344L103.68-39.424 182.1184-39.424 239.7184-39.424 311.7568-39.424 311.7568 226.7136C282.3168 255.1808 264.8064 294.5536 264.8064 336.5888L264.8064 500.6848 264.8064 500.6848ZM704.4608 587.1104C696.7296 587.1104 689.2544 586.24 682.0352 584.4992 698.0096 560.384 707.2768 531.5584 707.2768 500.6848L707.2768 336.5888C707.2768 307.712 699.0336 280.064 684.3392 256.3584 717.5168 279.552 758.0672 293.1712 801.7408 293.1712 834.1504 293.1712 864.8192 285.696 892.0576 272.384 909.824 289.792 920.9344 313.9072 920.9344 340.4288L920.9344 491.264C920.9344 543.9488 877.2608 587.1104 823.9104 587.1104L704.4608 587.1104ZM656.0256 500.6848C656.0256 558.08 608.512 605.0304 550.4 605.0304L420.4544 605.0304C362.3936 605.0304 314.8288 558.08 314.8288 500.6848L314.8288 336.5888C314.8288 296.448 338.1248 261.4272 371.968 243.968L371.968-76.7488 457.3184-76.7488 520.0384-76.7488 598.4256-76.7488 598.4256 85.5552C598.3232 87.8592 598.272 90.1632 598.272 92.4672 598.272 94.72 598.3232 96.9216 598.4256 99.1744L598.4256 243.7632C632.5248 261.12 656.0256 296.2944 656.0256 336.5888L656.0256 500.6848ZM210.7392 807.424C154.3168 807.424 108.544 762.2656 108.544 706.4576 108.544 650.752 154.3168 605.4912 210.7392 605.4912 267.2128 605.4912 312.9856 650.752 312.9856 706.4576 312.9856 762.2656 267.2128 807.424 210.7392 807.424ZM799.1296 265.9328C703.3344 265.9328 625.5616 189.184 625.4592 94.6176 625.408 0.0512 703.3856-76.8 799.3856-76.7488 894.8736-76.7488 972.6976 0.0512 972.8512 94.4128 973.0048 189.0304 895.1296 265.9328 799.1296 265.9328ZM911.4112 74.5472C895.8464 74.5984 859.1872 74.7008 819.456 74.7008 819.456 35.4816 819.4048-0.7168 819.3536-16.128 819.2512-27.136 810.1888-36.096 799.0272-36.1472 787.8656-36.1984 778.8544-27.2896 778.9056-16.2816 778.9568-0.8704 779.008 35.4304 779.0592 74.7008 739.2768 74.7008 702.5664 74.5984 686.9504 74.5472 675.7888 74.496 666.7776 83.4048 666.8288 94.4128 666.88 105.472 675.9936 114.432 687.1552 114.4832 702.6688 114.5856 739.328 114.5856 779.0592 114.5856 779.008 153.856 778.9568 190.0544 778.9056 205.4656 778.8544 216.4736 787.8656 225.3824 799.0272 225.3312 810.1888 225.28 819.2512 216.32 819.3536 205.2608 819.4048 189.9008 819.456 153.7536 819.456 114.5856 859.0848 114.5856 895.6928 114.5856 911.2064 114.4832 922.368 114.432 931.4816 105.472 931.5328 94.4128 931.584 83.4048 922.5728 74.496 911.4112 74.5472Z"  horiz-adv-x="1024" />

    
    <glyph glyph-name="shouji" unicode="&#58925;" d="M225.113302 81.777116h562.461768V782.907535H225.089488v-701.130419z m339.825117 757.688558a11.549767 11.549767 0 0 1-11.716466 11.311628h-117.212279a11.573581 11.573581 0 0 1-11.716465-11.311628v-11.311627c0-6.215442 5.310512-11.311628 11.716465-11.311628h117.212279c6.429767 0 11.692651 5.096186 11.692652 11.311628v11.311627z m-58.582326-893.380465c25.766698 0 46.86586 20.337116 46.86586 45.222698 0 24.861767-21.099163 45.246512-46.889674 45.246512-25.766698 0-46.86586-20.384744-46.86586-45.246512 0-24.885581 21.099163-45.246512 46.86586-45.246512z m281.218977-67.869767H225.089488C186.439442-121.808372 154.790698-91.231256 154.790698-53.938605V828.130233C154.790698 865.470512 186.415628 896 225.113302 896h562.461768c38.67386 0 70.322605-30.529488 70.322604-67.869767v-882.068838c0-37.292651-31.672558-67.869767-70.322604-67.869767z"  horiz-adv-x="1024" />

    
    <glyph glyph-name="renzheng" unicode="&#58933;" d="M998.808 444.845L890.742 552.912V673.021c0 49.17-39.866 89.036-89.035 89.036H681.576L572.864 870.792c-33.611 33.611-88.1 33.611-121.711 0L342.418 762.057h-119.44c-49.17 0-89.035-39.866-89.035-89.036V553.58L25.208 444.845c-33.611-33.611-33.611-88.101 0-121.712L133.942 214.42v-120.131c0-49.17 39.866-89.036 89.035-89.036h120.131l108.044-108.045c33.611-33.611 88.1-33.611 121.711 0l108.045 108.045h120.799c49.17 0 89.035 39.866 89.035 89.036V215.088l108.066 108.045c33.589 33.611 33.589 88.101 0 121.712zM430.786 161.066L222.978 370.567l55.002 25.398 146.685-114.278 334.261 324.558 42.782-19.031-370.922-426.148z"  horiz-adv-x="1024" />

    
    <glyph glyph-name="qiyefuwuyingyong" unicode="&#58969;" d="M1007.831579 615.747368v-414.989473c0-21.557895-5.389474-37.726316-10.778947-53.894737-5.389474-16.168421-16.168421-32.336842-26.947369-48.505263-10.778947-16.168421-21.557895-26.947368-37.726316-43.11579-16.168421-10.778947-26.947368-21.557895-37.726315-26.947368-37.726316-16.168421-75.452632-32.336842-118.568421-48.505263-43.115789-16.168421-80.842105-32.336842-113.178948-48.505263-43.115789-16.168421-80.842105-32.336842-118.568421-48.505264v538.947369l463.494737 194.021052M0 615.747368l468.884211-199.410526v-538.947368c-37.726316 16.168421-75.452632 32.336842-113.178948 53.894737-32.336842 16.168421-75.452632 32.336842-118.568421 53.894736-43.115789 21.557895-86.231579 37.726316-129.347368 59.284211-16.168421 5.389474-32.336842 16.168421-43.11579 26.947368-10.778947 10.778947-21.557895 26.947368-32.336842 37.726316-10.778947 16.168421-16.168421 26.947368-21.557895 43.11579-5.389474 16.168421-10.778947 32.336842-10.778947 48.505263V615.747368M980.884211 696.589474L512 502.568421 43.115789 696.589474 506.610526 885.221053l474.273685-188.631579"  horiz-adv-x="1024" />

    
    <glyph glyph-name="tongshi-zuzhijiagou" unicode="&#58930;" d="M512.02 640.02h8.54c124.191 0 248.403 0.041 372.593 0 31.11 0 56.075-18.083 63.734-46.428 1.68-6.205 2.417-12.861 2.417-19.292 0.123-169.636 0.143-339.251 0.061-508.887-0.02-38.031-27.73-65.68-65.74-65.7-254.362-0.061-508.703-0.061-763.045 0-38.195 0.02-65.966 27.915-65.966 66.171-0.04 211.989-0.04 423.957 0 635.966 0 38.502 27.874 66.437 66.315 66.437 104.837 0.04 209.694 0.04 314.531 0 38.749 0 66.376-27.546 66.499-66.171 0.123-18.37 0.061-36.782 0.061-55.173v-6.923z m-383.098 0.39h318.873v63.385H128.922v-63.385z"  horiz-adv-x="1024" />

    
    <glyph glyph-name="ribaoshezhi" unicode="&#59028;" d="M908.972607 236.585806h-194.445763a72.917161 72.917161 0 0 1-72.917161-72.917161v-218.751484a72.917161 72.917161 0 0 1 72.917161-72.917161h194.445763a72.917161 72.917161 0 0 1 72.917161 72.917161v48.611441a24.30572 24.30572 0 0 1-48.611441 0v-72.917161H690.221123V187.974365h243.057204v-72.917161a24.30572 24.30572 0 0 1 48.611441 0v48.611441a72.917161 72.917161 0 0 1-72.917161 72.917161z m-10.694517 267.362924a417.329219 417.329219 0 0 1-29.652979 72.917161 123.230002 123.230002 0 0 1-3.888915 166.980299 116.910515 116.910515 0 0 1-83.854736 34.757181 118.125801 118.125801 0 0 1-80.208877-31.597437 401.044386 401.044386 0 0 1-71.458818 30.382151 118.611915 118.611915 0 0 1-237.223831 0A399.342986 399.342986 0 0 1 320.288059 747.005934a118.125801 118.125801 0 0 1-80.208877 31.597437A116.910515 116.910515 0 0 1 155.495275 743.360076 123.230002 123.230002 0 0 1 152.578588 576.865891a417.329219 417.329219 0 0 1-29.652979-72.917161 121.528602 121.528602 0 0 1 0-241.841918 415.384761 415.384761 0 0 1 29.652979-72.917161 123.230002 123.230002 0 0 1 2.916687-167.709471 116.910515 116.910515 0 0 1 84.583907-35.243294 118.125801 118.125801 0 0 1 80.208877 31.597436 399.342986 399.342986 0 0 1 71.458818-30.38215A121.528602 121.528602 0 0 1 510.60185-128a112.292428 112.292428 0 0 1 33.784951 5.590316 36.215523 36.215523 0 0 1 20.902919 51.042013 35.000237 35.000237 0 0 1-41.076667 18.715404 45.451697 45.451697 0 0 0-14.340375-2.430572 48.611441 48.611441 0 0 0-47.153098 46.180869l-1.944457 51.042013-48.611441 14.826489a328.370282 328.370282 0 0 0-58.819843 24.305721l-44.236411 24.30572-37.187753-34.271066a48.611441 48.611441 0 0 0-32.326608-12.638974 46.180869 46.180869 0 0 0-33.298837 13.85426A48.611441 48.611441 0 0 0 205.565059 139.362924l33.541894 37.916924-24.305721 45.20864a341.738429 341.738429 0 0 0-24.30572 60.035129l-14.583432 48.611441L126.571467 333.808687a48.611441 48.611441 0 0 0 0 97.222882l50.069784 2.673629 14.583433 48.611441a341.738429 341.738429 0 0 0 24.30572 60.035129l24.30572 45.20864L205.565059 625.477332a48.611441 48.611441 0 0 0 1.215286 66.597674 46.180869 46.180869 0 0 0 33.298837 13.611203 48.611441 48.611441 0 0 0 32.326608-12.638974l37.187752-34.271066 44.236411 24.30572a329.099454 329.099454 0 0 0 58.819843 24.305721l48.611441 14.826489 2.673629 51.042013a47.153098 47.153098 0 0 0 94.306196 0L560.185519 722.700214l48.611441-14.82649a328.370282 328.370282 0 0 0 58.819843-24.30572l44.236411-24.305721 36.701638 33.784952a48.611441 48.611441 0 0 0 32.326608 12.638974 46.180869 46.180869 0 0 0 33.298837-13.85426 48.611441 48.611441 0 0 0 1.215286-66.354617l-33.541894-37.916924 24.305721-45.20864a341.738429 341.738429 0 0 0 24.30572-60.035129l14.583432-48.611441 49.340613-2.673629a48.611441 48.611441 0 0 0 36.701637-75.59079 33.05578 33.05578 0 0 1 8.020888-48.611441l7.048659-4.37503a31.354379 31.354379 0 0 1 41.805839 8.750059A121.528602 121.528602 0 0 1 898.27809 503.94873z m-367.502492 38.646096a156.771897 156.771897 0 0 0 129.792546-117.39663 159.688583 159.688583 0 0 0 1.701401-70.486589 37.673867 37.673867 0 0 1 17.014004-40.590553 35.486352 35.486352 0 0 1 52.500356 24.30572 235.522431 235.522431 0 0 1 0 97.222882 226.772371 226.772371 0 0 1-445.03774-86.771422 229.446 229.446 0 0 1 178.16093-189.341562 224.827914 224.827914 0 0 1 61.73653-4.131972 36.458581 36.458581 0 1 1-5.833373 72.917161 145.834322 145.834322 0 0 0-77.778305 16.284833 158.959411 158.959411 0 0 0-86.04225 118.854972 156.771897 156.771897 0 0 0 173.785901 179.13316zM848.208306 139.362924h-48.611441a36.458581 36.458581 0 0 1 0-72.917161h48.611441a36.458581 36.458581 0 1 1 0 72.917161z m0-97.222881h-48.611441a36.458581 36.458581 0 0 1 0-72.917161h48.611441a36.458581 36.458581 0 1 1 0 72.917161z"  horiz-adv-x="1024" />

    
    <glyph glyph-name="zidingyi" unicode="&#59703;" d="M128 768h320V832H128.288A64.32 64.32 0 0 1 64 767.712V448h64V768z m448 64v-64h320v-320h64V767.712A64.32 64.32 0 0 1 895.712 832H576zM128 320H64v-319.712A64.32 64.32 0 0 1 128.288-64H448v64H128V320z m768-320H576v-64h319.712A64.32 64.32 0 0 1 960 0.288V320h-64v-320zM544 416V640h-64v-224H256v-64h224v-256h64v256h256v64h-256z"  horiz-adv-x="1024" />

    
    <glyph glyph-name="chengyuan" unicode="&#59180;" d="M698.504533 216.6784c-9.284267 9.6256-13.994667 60.347733-23.210666 108.544 40.618667 32.085333 73.181867 79.530667 93.047466 135.850667 25.736533 9.693867 44.2368 41.506133 44.2368 79.2576 0 26.4192-9.216 50.107733-23.7568 65.194666C782.062933 767.522133 678.570667 896 552.072533 896 425.437867 896 321.9456 767.522133 315.118933 605.525333c-14.472533-15.086933-23.7568-38.775467-23.7568-65.194666 0-37.751467 18.8416-69.563733 44.509867-79.2576 18.0224-51.746133 46.6944-95.6416 82.397867-127.3856-10.0352-50.449067-14.677333-106.769067-24.507734-117.009067-30.583467-32.085333-80.554667-54.4768-130.798933-80.008533C239.479467 122.88 0 49.834667 0-59.528533 0-77.960533 14.199467-128 46.967467-128h998.331733c32.699733 0 46.967467 50.039467 46.967467 68.471467 0 109.431467-239.547733 182.408533-262.9632 196.1984-50.176 25.531733-100.215467 47.9232-130.798934 80.008533z"  horiz-adv-x="1092" />

    
    <glyph glyph-name="chaojiguanliyuan" unicode="&#58946;" d="M585.182609-89.838509l19.080745 95.403726-69.962733 69.962733c-25.440994 25.440994-31.801242 57.242236-25.440994 89.043479 6.360248 31.801242 31.801242 50.881988 69.962733 57.242236l89.043479 12.720496c-6.360248 0-6.360248 6.360248-12.720497 6.360249-12.720497 12.720497-19.080745 19.080745-25.440994 31.801242-6.360248 6.360248-6.360248 19.080745-6.360249 31.801242v31.801243c0 6.360248 6.360248 12.720497 6.360249 19.080745 0 6.360248 6.360248 12.720497 12.720497 12.720497l12.720497 12.720497c6.360248 6.360248 12.720497 6.360248 19.080745 12.720497 6.360248 6.360248 12.720497 12.720497 12.720497 19.080745 6.360248 6.360248 6.360248 19.080745 12.720497 25.440994 0 12.720497 6.360248 19.080745 6.360248 31.801242 6.360248 0 12.720497 6.360248 19.080746 12.720497 6.360248 6.360248 12.720497 12.720497 12.720496 19.080745 6.360248 6.360248 6.360248 19.080745 6.360249 31.801243v25.440993c0 6.360248-6.360248 12.720497-6.360249 19.080746 0 6.360248-6.360248 12.720497-12.720496 12.720497 0 25.440994 0 50.881988-6.360249 82.683229 0 25.440994-6.360248 44.521739-19.080745 76.322982-6.360248 25.440994-19.080745 50.881988-38.161491 69.962733-6.360248 6.360248-19.080745 19.080745-31.801242 25.440993 0 12.720497-12.720497 19.080745-25.440994 25.440994-19.080745 6.360248-38.161491 12.720497-50.881988 19.080746C534.300621 896 515.219876 896 496.13913 896c-19.080745 0-31.801242 0-50.881987-6.360248-19.080745 0-31.801242-6.360248-50.881988-12.720497-12.720497-6.360248-25.440994-12.720497-44.521739-25.440994l-44.521739-44.521739c-12.720497-19.080745-25.440994-38.161491-31.801242-63.602485-6.360248-31.801242-6.360248-50.881988-12.720497-76.322981 0-25.440994-6.360248-50.881988-6.360249-76.322981 0-6.360248-6.360248-12.720497-6.360248-19.080746 0-6.360248-6.360248-12.720497-6.360248-25.440994 0-6.360248 0-19.080745 6.360248-31.801242s6.360248-19.080745 12.720497-25.440994c0-6.360248 6.360248-6.360248 6.360248-12.720497 6.360248-6.360248 6.360248-6.360248 12.720497-6.360248 6.360248-12.720497 6.360248-19.080745 12.720497-31.801242 6.360248-6.360248 6.360248-19.080745 12.720497-25.440994 6.360248-6.360248 6.360248-12.720497 12.720497-19.080745 12.720497-6.360248 19.080745-19.080745 31.801242-25.440994 6.360248-6.360248 12.720497-19.080745 12.720497-38.161491v-25.440994c0-6.360248 0-19.080745-6.360248-25.440993 0-6.360248-6.360248-19.080745-19.080746-25.440994-6.360248-6.360248-19.080745-19.080745-31.801242-25.440994-19.080745-12.720497-38.161491-19.080745-63.602484-25.440994-25.440994-6.360248-127.204969-38.161491-146.285715-50.881987-19.080745-6.360248-38.161491-19.080745-57.242236-31.801243-19.080745-12.720497-25.440994-31.801242-31.801242-57.242236-6.360248-44.521739-6.360248-50.881988-6.360248-76.322981 6.360248-25.440994 6.360248-44.521739 19.080745-50.881988 6.360248-6.360248 25.440994-12.720497 50.881987-19.080745 38.161491-6.360248 222.608696-38.161491 432.496895-38.161491h82.68323v31.801243z m419.776397 241.689441l-108.124223 12.720497c-19.080745 0-38.161491 19.080745-44.52174 31.801242l-44.521739 95.403727c-6.360248 6.360248-6.360248 12.720497-12.720497 12.720496s-6.360248-6.360248-12.720496-12.720496l-44.52174-95.403727c-6.360248-12.720497-25.440994-31.801242-44.521739-31.801242l-108.124223-12.720497c-19.080745 0-19.080745-12.720497-6.360249-25.440994l76.322982-76.322981c12.720497-12.720497 19.080745-31.801242 19.080745-50.881988l-19.080745-108.124224c0-12.720497 0-19.080745 12.720497-19.080745h12.720496l95.403727 50.881988c6.360248 6.360248 19.080745 6.360248 25.440994 6.360248 6.360248 0 19.080745 0 25.440994-6.360248l95.403726-50.881988h12.720497c6.360248 0 12.720497 6.360248 12.720497 19.080745l-19.080745 108.124224c0 19.080745 6.360248 38.161491 19.080745 50.881988l76.322982 76.322981c0 12.720497 0 25.440994-19.080746 25.440994z"  horiz-adv-x="1030" />

    
    <glyph glyph-name="tonghuahuawuliang" unicode="&#58888;" d="M612.998-11.397c-43.979 0-100.753 29.298-140.645 53.884-53.413 32.913-110.959 78.452-162.037 128.218l-0.186 0.18-16.216 16.225c-49.769 51.07-95.306 108.622-128.225 162.039-24.58 39.887-53.88 96.665-53.88 140.644 0 47.063 33.654 97.017 48.124 116.305 11.288 15.057 50.737 64.177 84.251 64.177 13.764 0 28.582-9.007 48.062-29.209 17.228-17.86 33.759-40.064 44.594-55.543 14.552-20.787 28.005-42.544 37.894-61.28 16.008-30.33 17.861-43.335 17.861-50.483 0-14.419-7.532-26.926-22.383-37.169-9.778-6.745-21.52-11.825-32.869-16.736-7.654-3.313-19.882-8.598-24.544-12.314 1.625-6.893 8.736-23.531 27.958-51.746 17.904-26.287 41.061-54.782 61.981-76.263 21.479-20.919 49.966-44.078 76.262-61.983 28.208-19.21 44.847-26.322 51.743-27.954 3.714 4.663 9.005 16.886 12.315 24.544 4.908 11.354 9.987 23.092 16.734 32.872 10.245 14.853 22.755 22.378 37.172 22.378 7.146 0 20.153-1.852 50.486-17.855 18.729-9.89 40.494-23.346 61.277-37.896 15.479-10.836 37.683-27.367 55.546-44.591 20.196-19.481 29.202-34.299 29.202-48.065 0-33.514-49.116-72.96-64.171-84.247-19.288-14.482-69.242-48.132-116.306-48.132zM338.497 199.44c49.001-47.732 104.03-91.3 154.979-122.694 49.389-30.44 92.956-47.896 119.525-47.896 23.661 0 57.401 14.453 90.252 38.658 14.399 10.612 27.507 22.436 36.908 33.279 8.818 10.184 12.043 16.826 12.86 19.506-3.41 7.32-23.654 30.213-70.897 62.806-18.536 12.784-37.695 24.534-53.954 33.081-20.416 10.735-28.928 12.591-30.872 12.896-0.76-0.522-2.982-2.38-6.36-8.047-3.786-6.347-7.422-14.753-10.94-22.884-4.325-10.01-8.809-20.361-14.3-28.715-8.931-13.584-19.896-20.477-32.589-20.483-0.229 0-0.474 0.005-0.715 0.015-6.177 0.129-24.992 0.528-76.057 35.304-28.19 19.208-58.804 44.106-81.886 66.62l-0.36 0.358c-22.506 23.085-47.404 53.692-66.608 81.881-34.78 51.067-35.182 69.875-35.314 76.058-0.276 12.924 6.546 24.083 20.272 33.17 8.393 5.557 18.83 10.071 28.919 14.439 8.134 3.514 16.535 7.151 22.884 10.932 5.666 3.376 7.527 5.604 8.042 6.361-0.302 1.946-2.155 10.456-12.889 30.873-8.549 16.256-20.299 35.42-33.083 53.951-32.592 47.251-55.485 67.495-62.804 70.902-2.683-0.822-9.328-4.046-19.511-12.865-10.847-9.394-22.665-22.506-33.274-36.906-24.209-32.848-38.658-66.585-38.658-90.251 0-26.566 17.454-70.129 47.894-119.525 31.398-50.944 74.964-105.976 122.693-154.975l15.843-15.849zM462.5 593.5h332v-45h-332zM462.5 495.5h332v-45h-332zM462.5 399.5h332v-45h-332z"  horiz-adv-x="1024" />

    
    <glyph glyph-name="sousuoshezhi" unicode="&#58904;" d="M914.16-121.304c-25.448 0-49.24 9.592-67 26.976L624.064 127.392a261.744 261.744 0 0 0-98.968-19.48c-146.704 0-265.68 119.296-265.68 265.936 0 24.28 3.208 48.216 9.528 71.112l10.08 36.44 130.552-131.296c15.32-15.192 36.488-23.6 59.48-23.6 26.416 0 52.792 11.184 72.344 30.704 38.168 38.08 41.264 97.296 6.888 131.984L417.552 619.376l36.304 10.112a264.208 264.208 0 0 0 70.888 9.568c146.192 0 265.2-118.976 265.24-265.2 0-34.52-6.48-67.904-19.288-99.504l223.864-221.08c17.496-17.56 27.048-41.28 26.992-66.928-0.064-27.832-11.712-55.352-31.96-75.488-20.048-20.376-47.6-32.16-75.432-32.16z m-280.896 301.44l244.728-243.216c9.408-9.184 22.272-14.304 36.168-14.304 16.4 0 32.12 6.832 44.312 19.184 12.208 12.16 19.136 28.352 19.16 44.64 0.048 13.896-4.944 26.568-14.048 35.696L718.016 264.68l6.688 14.088a219.968 219.968 0 0 1 21.36 95.088c-0.04 122.016-99.32 221.296-221.32 221.296-6.64 0-13.24-0.288-19.776-0.848l74.4-74.096c51.456-51.928 48.304-138.952-6.96-194.088-27.728-27.656-65.384-43.504-103.352-43.528-34.648 0-66.792 12.952-90.504 36.44l-74.36 74.792a226.536 226.536 0 0 1-0.872-19.96c0-122.416 99.28-222.008 221.312-222.008 33.128 0 65.696 7.416 94.632 21.48l14 6.8zM534.264-24.184c11.752 11.704 25.192 20.408 39.584 26.752l-41.736 41.728c-13.472-7.952-26.32-16.928-37.912-28.48-23.744-23.752-37.296-56.048-39.792-62.208l-0.352-0.992-131.504 37.856-0.12 0.176c-0.096 0.04-0.176 0.136-0.272 0.168a8.512 8.512 0 0 0-2.272 4.024l-0.032 0.256c0.112 2.832 1.104 27.904-3.432 58.664-6.736 45.192-21.608 79.656-44.336 102.392-22.504 22.504-56.592 37.424-101.328 44.328-30.104 4.632-55.176 3.912-58.008 3.776h-0.248a10.32 10.32 0 0 0-3.92 2.368l-0.216 0.216-0.208 0.208-0.04 0.216L72.16 334.4l0.984 0.392c6.168 2.488 38.512 16.072 62.296 39.832 70.624 70.624 73.632 183.984 6.784 258.16l-0.56 0.6 0.52 0.776c4.888 7.12 30.56 43.656 54.192 67.336 23.544 23.496 60.192 49.272 67.336 54.192l0.672 0.52 0.68-0.6c74.152-66.808 187.48-63.856 258.144 6.768 23.744 23.76 37.304 56.016 39.792 62.272l0.392 0.888 133.648-38.84 0.168-0.168c0.12-0.136 0.256-0.216 0.376-0.384 1.584-1.592 2.528-3.648 2.712-4.592v-0.208c-0.104-2.656-0.424-27.096 4.496-56.592 7.328-43.648 22.248-76.928 44.312-98.968 21.76-21.88 54.712-36.704 97.832-44.264 29.248-5.056 53.336-4.88 55.952-4.784l0.272-0.096c0.888-0.176 2.904-1.024 4.528-2.664 0.144-0.128 0.216-0.248 0.312-0.344l0.152-0.16 0.176-0.344 36.92-129.336-0.888-0.392c-6.256-2.48-38.608-16.024-62.352-39.832-11.32-11.32-20.224-23.92-28.04-37.136l41.664-41.664c6.36 13.968 14.88 27.264 26.376 38.808 16.944 16.936 43.256 27.264 43.536 27.4 24.928 9.592 40.2 36.648 35.536 62.928l-0.264 1.472-39.232 137.296-0.52 1.2a58.088 58.088 0 0 1-13.376 20.136c-12.344 12.368-29.416 19.56-45.616 19.264-22.04-0.344-85.288 4.808-112.976 32.504-27.968 27.952-32.768 91.968-32.256 114.352 0.44 16.376-6.712 33.568-19.232 46.048a58.104 58.104 0 0 1-19.696 13.224l-1.32 0.536-141.504 41.12-1.504 0.296c-26.368 4.76-53.384-10.504-63-35.408-0.08-0.216-10.624-26.712-27.44-43.512-51.008-51.064-134.12-51.128-185.224 0l-3.08 3.048c-0.136 0.208-0.344 0.384-0.52 0.64-14.112 14.056-38.24 12.904-61.48-2.928-1.904-1.28-46.832-32.072-76.456-61.696-29.64-29.632-60.416-74.576-61.712-76.456-15.848-23.28-16.976-47.424-2.864-61.48 0.176-0.216 0.392-0.384 0.56-0.6l3.08-3.104c51.072-51.008 51.072-134.12 0-185.224-16.72-16.68-43.256-27.272-43.552-27.36-24.88-9.6-40.168-36.68-35.504-62.936l0.248-1.472 38.16-134.976 0.472-1.24c2.88-7.344 7.336-14.112 13.296-20.072 12.48-12.472 29.808-19.536 46.256-18.832 21.36 0.848 88.672-3.04 117.24-31.584 28.824-28.776 32.328-95.376 31.2-118.56-0.752-16.648 6.256-34.152 18.92-46.784l0.136-0.096a57.792 57.792 0 0 1 19.552-13.032l1.28-0.512 139.272-40.088 1.456-0.272c26.32-4.704 53.432 10.48 63.024 35.432 0.424 1.104 10.888 27.088 27.36 43.568z"  horiz-adv-x="1024" />

    
    <glyph glyph-name="jifeizhongxin" unicode="&#58963;" d="M544 384h192V448H588.8l160 160-44.8 44.8-192-192-192 192-44.8-44.8L435.2 448H288v-64h192v-64h-192v-64h192v-192h64v192h192V320h-192V384zM512 896c281.6 0 512-230.4 512-512s-230.4-512-512-512-512 230.4-512 512 230.4 512 512 512z"  horiz-adv-x="1024" />

    
    <glyph glyph-name="ribao" unicode="&#58906;" d="M934.96 63.456v-84.576c0-40.064-35.616-71.232-75.68-71.232H164.752c-40.064 0-75.68 31.168-75.68 71.232V824.8C89.072 864.864 124.688 896.032 164.752 896.032H859.28c40.064 0 75.68-31.168 75.68-71.232v-761.28z m-187.008 102.4H276.016c-22.272 0-35.616-17.824-35.616-35.616s17.824-35.616 35.616-35.616h471.936c22.272 0 35.616 17.824 35.616 35.616 0 22.272-13.344 35.616-35.616 35.616z m-311.648 512H498.64c31.168 0 53.44-8.896 71.232-26.72 13.344-17.824 22.272-40.064 22.272-71.232s-8.896-53.44-22.272-71.232-44.512-22.272-75.68-22.272h-57.888V677.856z m57.888-262.688c53.44 0 97.952 17.824 129.12 48.96 26.72 31.168 44.512 71.232 44.512 120.224s-13.344 89.056-40.064 115.744c-31.168 31.168-71.232 48.96-129.12 48.96H400.688c-22.272 0-40.064-17.824-40.064-35.616v-262.688c0-22.272 17.824-35.616 40.064-35.616h93.504z m253.76-106.848H276.016c-22.272 0-35.616-17.824-35.616-35.616s17.824-35.616 35.616-35.616h471.936c22.272 0 35.616 17.824 35.616 35.616 0 22.272-13.344 35.616-35.616 35.616z"  horiz-adv-x="1024" />

    
    <glyph glyph-name="shujupingtai" unicode="&#59380;" d="M613.063327 604.460751h101.153642v-348.799435h-101.153642zM764.793791 463.026283h101.153642v-207.184336h-101.153642zM461.513494 710.672076h101.153643v-454.830129h-101.153643zM410.936673 3.138472h-156.607514c-30.346093 0-50.576821-20.230729-50.576822-50.576821s20.230729-50.576821 50.576822-50.576821h561.041453c30.346093 0 50.576821 20.230729 50.576821 50.576821s-20.230729 50.576821-50.576821 50.576821h-151.549832v101.153643h-252.884107v-101.153643zM916.343623 862.221909H107.656377c-55.634503 0-101.153643-45.519139-101.153643-101.153643v-555.983771c0-55.634503 45.519139-101.153643 101.153643-101.153643h303.280296v101.153643H107.656377V761.248898h808.687246v-555.983772H663.640148v-101.153642h252.703475c55.634503 0 101.153643 45.519139 101.153643 101.153642V761.248898c0 55.634503-45.519139 100.973011-101.153643 100.973011zM158.233198 412.449462h101.153643v-151.549832h-101.153643zM309.783031 518.660787h101.153642v-257.761157h-101.153642z"  horiz-adv-x="1024" />

    
    <glyph glyph-name="zaixiangoutong" unicode="&#58881;" d="M826.4 337.29999999999995h-0.8c-12.5 0.2-22.6 10.4-22.6 22.9 0 12.5 10.2 22.8 22.6 22.9l6.4 0.1v0.2c46 3.3 82.5 41.9 82.5 88.7V660.6c0 49-39.9 89-89 89h-424c-49 0-89-39.9-89-89 0-12.7-10.3-22.9-22.9-22.9-12.7 0-23 10.3-23 22.9v23.6c0 61.4 49.9 111.3 111.3 111.3h471.2c61.4 0 111.3-49.9 111.3-111.3v-235.6c0-61.4-49.9-111.3-111.3-111.3h-22.7zM289.7 349.6c-12.7 0-23 10.3-23 22.9 0 12.7 10.3 22.9 23 22.9s22.9-10.3 22.9-22.9c0-12.6-10.3-22.9-22.9-22.9zM407.4 349.6c-12.7 0-22.9 10.3-22.9 22.9 0 12.7 10.3 22.9 22.9 22.9 12.7 0 22.9-10.3 22.9-22.9 0.1-12.6-10.2-22.9-22.9-22.9zM525.2 349.6c-12.7 0-22.9 10.3-22.9 22.9 0 12.7 10.3 22.9 22.9 22.9 12.7 0 23-10.3 23-22.9 0-12.6-10.3-22.9-23-22.9zM633.2-32.39999999999998h-1.3c-0.3 0-0.5 0-0.8 0.1h-0.3c-0.3 0-0.5 0.1-0.8 0.1l-0.5 0.1c-0.2 0-0.4 0.1-0.6 0.1l-1.1 0.2c-0.1 0-0.9 0.2-0.9 0.2h0.1l-0.3 0.1c-0.3 0.1-0.5 0.2-0.8 0.3l-0.2 0.1-0.9 0.3h-0.1c-0.3 0.1-0.6 0.2-0.9 0.4l-0.2 0.1c-0.2 0.1-0.5 0.2-0.7 0.3l-0.2 0.1-0.3 0.1c-0.1 0.1-0.3 0.2-0.4 0.2l-0.5 0.3c-0.2 0.1-0.8 0.5-0.8 0.5l-0.1 0.1c-0.2 0.1-1 0.7-1 0.7-0.1 0.1-0.2 0.1-0.3 0.2L385.1 143.5H174.8c-61.4 0-111.3 49.9-111.3 111.3V490.4c0 61.4 49.9 111.3 111.3 111.3H646c61.4 0 111.3-49.9 111.3-111.3v-235.6c0-61.4-49.9-111.3-111.3-111.3h-16.5l26.1-149c0-0.2 0-0.3 0.1-0.5 0-0.1 0-0.3 0.1-0.4v0.1l0.1-0.7 0.1-0.6c0-0.2 0-0.4 0.1-0.6V-10.799999999999955c0-0.3 0-0.6-0.1-0.8l-0.1-0.5c0-0.2 0-0.4-0.1-0.6l-0.1-0.6c0-0.2 0-0.3-0.1-0.5l-0.2-1.2c0-0.2-0.1-0.4-0.1-0.6l-0.1-0.5c-0.1-0.3-0.2-0.5-0.3-0.8l-0.1-0.2v-0.1c-0.1-0.2-0.2-0.5-0.3-0.7 0-0.1-0.1-0.2-0.1-0.2-0.1-0.3-0.4-1-0.5-1.1-0.1-0.2-0.2-0.5-0.3-0.7l-0.1-0.2-0.3-0.6c-0.1-0.1-0.2-0.4-0.2-0.4-0.1-0.1-0.2-0.3-0.2-0.4l-0.4-0.6-0.4-0.6-0.4-0.5-0.2-0.2c-0.1-0.2-0.2-0.3-0.3-0.4 0 0-0.3-0.4-0.4-0.5l-0.3-0.4-0.5-0.6-0.3-0.3-0.5-0.5-0.4-0.4-0.5-0.4-0.8-0.7-0.3-0.3 0.1 0.1-0.2-0.1c-0.1-0.1-0.2-0.2-0.4-0.3l-0.5-0.4c-0.1-0.1-0.5-0.4-0.5-0.4-0.1-0.1-0.8-0.5-0.8-0.5l-0.9-0.5c-0.2-0.1-0.3-0.2-0.5-0.3l-0.2-0.1c-0.1-0.1-0.2-0.1-0.4-0.2l-0.6-0.3c-0.2-0.1-0.2-0.1-0.3-0.1l-0.1-0.1c-0.2-0.1-0.4-0.1-0.6-0.2l-0.6-0.2c-0.1-0.1-0.3-0.1-0.4-0.2l-0.4-0.1s-0.5-0.1-0.7-0.2l-0.6-0.1c-0.2 0-0.5-0.1-0.5-0.1-0.2 0-0.9-0.2-0.9-0.2-0.1 0-0.7-0.1-0.9-0.1l-0.5-0.1-0.6-0.1H633.5l-0.3 0.3zM198.4 555.8c-49 0-89-39.9-89-89v-188.5c0-49 39.9-89 89-89H392c4.7 0 9.2-1.4 13.1-4.1l0.4-0.2 0.4-0.2c1.1-0.6 2.1-1.2 3.1-1.9l191.6-140.3L580 160.29999999999995l-0.1 0.3c-0.5 1.9-0.7 3.8-0.7 5.8 0 12.7 10.3 22.9 22.9 22.9h20.4c49 0 89 39.9 89 89V466.8c0 49-39.9 89-89 89H198.4z"  horiz-adv-x="1024" />

    
    <glyph glyph-name="zhankai" unicode="&#59202;" d="M535.744 440.064h-535.68v-114.112h535.68V440.064z m489.28-389.952H1.28V-64h1023.744v114.112z m-260.096 145.472V576l260.096-190.208-260.096-190.208zM1025.024 832H2.624v-116.096h1022.4V832z"  horiz-adv-x="1089" />

    
    <glyph glyph-name="shouqi" unicode="&#59203;" d="M489.536 440.064h535.68v-114.112H489.6V440.064zM0.256 50.112H1024V-64H0.256v114.112z m260.096 145.472V576L0.256 385.792l260.096-190.208zM0.256 832h1022.4v-116.096H0.256V832z"  horiz-adv-x="1088" />

    
    <glyph glyph-name="zhibiaoguanli" unicode="&#58928;" d="M832 768H192a64.19 64.19 0 0 1-64-64v-400.62l224 221.87 128-128 201.37 201.38L576 704h256v-254a288.52 288.52 0 0 0 64-43.4V704a64.19 64.19 0 0 1-64 64zM647.75 474.49A289 289 0 0 0 828 452L726.63 553.37zM453.17 333.58L352 434.75 128 213.16V64a64.19 64.19 0 0 1 64-64h297.36a288.07 288.07 0 0 0-36.19 333.58zM704 274.29a82.29 82.29 0 1 1 58.19-24.1 81.75 81.75 0 0 1-58.19 24.1zM704 448c-141.38 0-256-114.62-256-256s114.62-256 256-256 256 114.62 256 256-114.62 256-256 256z m181-285.63L843.15 154a13.77 13.77 0 0 1-10.23-8.84q-2.08-5.72-4.64-11.2a13.78 13.78 0 0 1 1-13.49L852.92 85a13.71 13.71 0 0 0-1.71-17.3l-22.89-22.89a13.71 13.71 0 0 0-17.3-1.71l-35.49 23.66a13.78 13.78 0 0 1-13.49 1q-5.47-2.56-11.2-4.64a13.77 13.77 0 0 1-8.84-10.27L733.63 11a13.71 13.71 0 0 0-13.45-11h-32.37a13.71 13.71 0 0 0-13.45 11L666 52.85a13.77 13.77 0 0 1-8.84 10.23q-5.72 2.08-11.2 4.64a13.78 13.78 0 0 1-13.49-1L597 43.08a13.71 13.71 0 0 0-17.3 1.71l-22.89 22.89a13.71 13.71 0 0 0-1.71 17.3l23.66 35.49a13.78 13.78 0 0 1 1 13.49q-2.56 5.47-4.64 11.2a13.77 13.77 0 0 1-10.27 8.84L523 162.37a13.71 13.71 0 0 0-11 13.45v32.37a13.71 13.71 0 0 0 11 13.45l41.85 8.36a13.77 13.77 0 0 1 10.23 8.84q2.08 5.72 4.64 11.2a13.78 13.78 0 0 1-1 13.49L555.08 299a13.71 13.71 0 0 0 1.71 17.3l22.89 22.89a13.71 13.71 0 0 0 17.3 1.71l35.49-23.66a13.78 13.78 0 0 1 13.49-1q5.47 2.56 11.2 4.64a13.77 13.77 0 0 1 8.84 10.27l8.37 41.85a13.71 13.71 0 0 0 13.45 11h32.37a13.71 13.71 0 0 0 13.45-11l8.36-41.85a13.77 13.77 0 0 1 8.84-10.23q5.72-2.08 11.2-4.64a13.78 13.78 0 0 1 13.49 1L811 340.92a13.71 13.71 0 0 0 17.3-1.71l22.89-22.89a13.71 13.71 0 0 0 1.71-17.3l-23.66-35.49a13.78 13.78 0 0 1-1-13.49q2.56-5.47 4.64-11.2a13.77 13.77 0 0 1 10.27-8.84l41.85-8.37a13.71 13.71 0 0 0 11-13.45v-32.37a13.71 13.71 0 0 0-11-13.44z"  horiz-adv-x="1024" />

    
    <glyph glyph-name="qiyedizhi" unicode="&#58894;" d="M885.12967111 523.56323555c0 204.70670222-167.30225778 370.71189333-373.82940444 370.71189334-206.46115555 0-373.83054222-166.00519111-373.83054222-370.71075556 0-67.63747555 18.55488-130.79438222 50.41379555-185.38951111h-0.39936l323.78197333-463.43623111 323.91395556 463.43623111h-0.43235556c31.96245333 54.59512889 50.38193778 117.75203555 50.38193778 185.38951111m-373.79640889-185.32124444c-103.21578667 0-186.91413333 82.96903111-186.91413333 185.35310222 0 102.31694222 83.69834667 185.35310222 186.91413333 185.35310222 103.31249778 0 186.91413333-83.03502222 186.91413333-185.35310222 0-102.38407111-83.60163555-185.35310222-186.91413333-185.35310222"  horiz-adv-x="1025" />

    
    <glyph glyph-name="yewuduanmorentouxiang" unicode="&#58926;" d="M512.3 383.8m-448 0a448 448 0 1 1 896 0 448 448 0 1 1-896 0ZM509.2 373.1c74.3 0 134.7 59.6 134.7 132.9 0 73.3-60.4 132.9-134.7 132.9-74.3 0-134.7-59.6-134.7-132.9 0-73.3 60.4-132.9 134.7-132.9z m53.6-23.8h-101c-93.8 0-170.1-75.2-170.1-167.6v-10c0-48.3 75.1-48.3 170.1-48.3h100.9c91.3 0 170.1 0 170.1 48.3v10c0.1 92.4-76.2 167.6-170 167.6z"  horiz-adv-x="1024" />

    
    <glyph glyph-name="beizhu" unicode="&#58971;" d="M745.5 199.8H443.7v25h301.8c20.6 0 37.4 16.8 37.4 37.4V557.9c0 20.6-16.8 37.4-37.4 37.4H280c-20.6 0-37.4-16.8-37.4-37.4v-295.7c0-20.6 16.8-37.4 37.4-37.4h34.6v-25H280c-34.4 0-62.4 28-62.4 62.4V557.9c0 34.4 28 62.4 62.4 62.4h465.4c34.4 0 62.4-28 62.4-62.4v-295.7c0-34.4-27.9-62.4-62.3-62.4zM455.2 105.4c-3.6 0-7.3 1-10.5 3l-0.3 0.2-144.1 95.6 13.8 20.8L449 135.5l-5.5 66.5 24.9 2.1 6.3-75.5c1.3-7.5-1.8-15-8-19.5-3.4-2.5-7.4-3.7-11.5-3.7zM359 410m-33.3 0a33.3 33.3 0 1 1 66.6 0 33.3 33.3 0 1 1-66.6 0ZM512.3 410m-33.3 0a33.3 33.3 0 1 1 66.6 0 33.3 33.3 0 1 1-66.6 0ZM665.7 410m-33.3 0a33.3 33.3 0 1 1 66.6 0 33.3 33.3 0 1 1-66.6 0Z"  horiz-adv-x="1024" />

    
    <glyph glyph-name="zhuzuoquan" unicode="&#58895;" d="M828.3 700.3C742.1 785.7 632.7 830.9 512 830.9c-119.6 0-232-46.4-316.3-130.6C110.3 614 65.1 504.7 65.1 384c0-121.5 45.1-230.8 130.6-316.3 83.5-84.3 195.9-130.6 316.3-130.6 121.5 0 230.8 45.2 316.3 130.6 85.5 85.5 130.6 194.8 130.6 316.3 0 120.7-45.1 230-130.6 316.3z m-37.5-595.4c-36.2-36.2-78.4-64.6-125.4-84.4-48.6-20.5-100.3-30.9-153.4-30.9-53.2 0-104.8 10.4-153.4 30.9-47 19.9-89.2 48.3-125.4 84.4-74.6 74.5-115.6 173.6-115.6 279.1 0 217.5 176.9 394.5 394.5 394.5 217.5 0 394.5-176.9 394.5-394.5-0.1-105.4-41.2-204.6-115.8-279.1z m0 0M646.7 296.3c-28.2-39.2-73.6-65.8-125.3-65.8-84.6 0-155.1 68.9-155.1 155.1 0 86.2 68.9 155.1 155.1 155.1 51.7 0 97.1-25.1 125.3-65.8h92.4c-36 86.2-119.1 145.7-217.7 145.7-130 0-236.5-106.5-236.5-236.5s106.5-236.5 236.5-236.5c98.7 0 183.3 61.1 217.7 145.7h-92.4v3z m0 0"  horiz-adv-x="1024" />

    
    <glyph glyph-name="ribao1" unicode="&#58887;" d="M800 864H224A128 128 0 0 1 96 736v-704a128 128 0 0 1 128-128h576a128 128 0 0 1 128 128V736A128 128 0 0 1 800 864z m64-832a64 64 0 0 0-64-64H224a64 64 0 0 0-64 64V736a64 64 0 0 0 64 64h576a64 64 0 0 0 64-64v-704zM736 160H288a32 32 0 0 1 0-64h448a32 32 0 0 1 0 64z m0 160H288a32 32 0 0 1 0-64h448a32 32 0 0 1 0 64zM618.432 463.616c14.144 23.616 21.184 52.48 21.184 86.592 0 13.44-1.664 27.648-4.992 42.432a111.616 111.616 0 0 1-18.88 41.344 87.232 87.232 0 0 1-45.12 32.576 144.768 144.768 0 0 1-40.96 5.568H383.616v-256.384h146.048c40 0 69.568 15.936 88.768 47.872z m-170.176 16.64V607.68h75.008c21.184 0 35.392-5.312 42.496-15.936 7.04-10.688 10.624-25.92 10.624-45.824 0-14.4-2.368-26.816-7.104-37.248-8.64-19.008-24-28.416-46.016-28.416h-75.008z"  horiz-adv-x="1024" />

    
    <glyph glyph-name="huawujinengzupeizhi" unicode="&#58882;" d="M699.5-85.2c-143.8 0-296.6 77.9-408.8 208.5-130.5 151.9-180.9 348.9-128.4 501.9 15 43.6 51 74.8 96.4 83.5 49.9 10 102.8-9.3 138-50.2l72.4-84.2c33.1-38.6 30.1-95.7-6.7-127.3l-0.1-0.1-11-9.4c-11.8-10.1-24-17.1-36.5-24-4.1-2.3-14.8-8.1-17.7-11-3.6-17.6 0.8-45 11.9-73.7 11.9-30.7 30.1-59.4 49.7-78.6 16.7-16.4 39.9-32.6 63.8-44.6s46-18.5 60.8-17.7c3.1 1.1 12 12.1 17.2 18.6 7.6 9.5 17.1 21.4 29.4 32l12 10.3c16.7 14.4 39.1 21.1 61.6 18.4 21.2-2.7 40.7-13.2 54.8-29.7l85.7-99.7c32-37.3 42.9-88.2 28.4-132.9-13.3-41.2-45-70.6-86.9-80.5-27.5-6.3-56.4-9.6-86-9.6zM285.1 668.9c-6.1 0-12.1-0.6-18.1-1.8h-0.1c-30.3-5.8-54.4-26.6-64.3-55.7-23.2-67.7-24.3-146.6-3.2-228.3 21.3-82.6 64.1-162.9 123.7-232.2 104.3-121.3 245.1-193.7 376.6-193.7 26.3 0 51.9 2.9 76.2 8.6 27.1 6.4 47.6 25.5 56.3 52.3 9.9 30.7 2.2 66-20.2 92.1L726.1 210c-7.2 8.5-17.1 13.8-27.8 15.2-10.6 1.3-21-1.8-28.6-8.4l-12.1-10.4c-9.3-8-17.1-17.7-23.9-26.3-14.1-17.6-26.3-32.8-47-34.4h-0.4c-47.9-3-117.6 35.4-157.3 74.3-23.8 23.3-45.5 57.4-59.6 93.6-14.7 37.8-19.5 73.1-13.6 99.4 4.3 19.1 20.9 28.3 38.5 37.9 10.9 6 20.6 11.5 29.3 19l0.1 0.1 11 9.3c19 16.4 19.9 46.6 2.1 67.4l-72.4 84.2c-20.8 24.3-50 38-79.3 38zM702.4 784.9c-60.4 0-109.9-49.5-109.9-109.9S642 565.1 702.4 565.1 812.3 614.6 812.3 675s-49.4 109.9-109.9 109.9z m0-180.6c-38.9 0-70.7 31.8-70.7 70.7s31.8 70.7 70.7 70.7 70.7-31.8 70.7-70.7c0-38.9-31.8-70.7-70.7-70.7zM700.1 761.3c-11 0-19.6 8.6-19.6 19.6V812.4c0 11 8.6 19.6 19.6 19.6s19.6-8.6 19.6-19.6V781c0-11-8.7-19.7-19.6-19.7zM627.8 728.8c-5.1 0-10.2 2-14.1 5.9l-22.8 23.5c-7.5 7.9-7.5 20.4 0.4 27.9s20.4 7.5 27.9-0.4l22.8-23.5c7.5-7.8 7.5-20.4-0.4-27.9-3.9-3.6-8.7-5.5-13.8-5.5zM598 655.4h-31.4c-11 0-19.6 8.6-19.6 19.6s8.6 19.6 19.6 19.6H598c11 0 19.6-8.6 19.6-19.6s-8.6-19.6-19.6-19.6zM606.2 558c-5.1 0-10.2 2-13.7 5.9-7.9 7.9-7.9 20 0 27.9l23.2 23.2c7.8 7.9 20 7.9 27.9 0s7.9-20 0-27.9l-23.2-23.2c-3.9-3.9-9-5.9-14.2-5.9zM704 518c-11 0-19.6 8.6-19.6 19.6v35.3c0 11 8.6 19.6 19.6 19.6s19.6-8.6 19.6-19.6v-35.3c0-11-8.6-19.6-19.6-19.6zM800.1 558.8c-5.1 0-10.2 2-13.7 5.9l-23.2 23.2c-7.8 7.8-7.8 20 0 27.9 7.9 7.8 20 7.8 27.9 0l23.2-23.2c7.9-7.9 7.9-20 0-27.9-3.9-3.9-9-5.9-14.2-5.9zM841.4 655.4H806c-11 0-19.6 8.6-19.6 19.6s8.6 19.6 19.6 19.6h35.3c11 0 19.6-8.6 19.6-19.6 0.1-11-8.5-19.6-19.5-19.6zM775.8 729.6c-5.1 0-10.2 2-13.7 5.9-7.8 7.8-7.8 20 0 27.9l23.2 23.2c7.8 7.8 20 7.8 27.9 0 7.8-7.9 7.8-20 0-27.9L790 735.5c-4-4-9.1-5.9-14.2-5.9z"  horiz-adv-x="1024" />

    
    <glyph glyph-name="gonggao" unicode="&#58959;" d="M810.666667 597.333333h-68.266667l-149.333333 149.333334c4.266667 8.533333 4.266667 12.8 4.266666 21.333333 0 46.933333-38.4 85.333333-85.333333 85.333333s-85.333333-38.4-85.333333-85.333333c0-8.533333 0-12.8 4.266666-21.333333L281.6 597.333333H213.333333c-72.533333 0-128-55.466667-128-128v-426.666666c0-68.266667 55.466667-128 128-128h597.333334c72.533333 0 128 59.733333 128 128V469.333333c0 72.533333-55.466667 128-128 128zM298.666667 213.333333c-25.6 0-42.666667 17.066667-42.666667 42.666667s17.066667 42.666667 42.666667 42.666667 42.666667-17.066667 42.666666-42.666667-17.066667-42.666667-42.666666-42.666667z m213.333333 0c-25.6 0-42.666667 17.066667-42.666667 42.666667s17.066667 42.666667 42.666667 42.666667 42.666667-17.066667 42.666667-42.666667-17.066667-42.666667-42.666667-42.666667zM401.066667 597.333333l89.6 89.6c8.533333-4.266667 12.8-4.266667 21.333333-4.266666s12.8 0 21.333333 4.266666L622.933333 597.333333H401.066667z m324.266666-384c-25.6 0-42.666667 17.066667-42.666666 42.666667s17.066667 42.666667 42.666666 42.666667 42.666667-17.066667 42.666667-42.666667-17.066667-42.666667-42.666667-42.666667z"  horiz-adv-x="1024" />

    
    <glyph glyph-name="yuangongdangan" unicode="&#58918;" d="M1022.489 71.869c3.43-20.57-0.855-39.082-12.855-55.547-12-16.458-28.291-26.406-48.861-29.829l-123.442-19.542c-19.888-3.429-38.226 0.856-55.038 12.857-16.794 12-26.909 28.291-30.338 48.861L647.026 693.184c-1.371 10.289-0.855 20.062 1.544 29.321 2.4 9.253 6.35 17.829 11.833 25.718 5.482 7.883 12.514 14.4 21.086 19.54 8.57 5.142 18.002 8.745 28.291 10.803l122.405 19.542c20.577 3.43 39.094-1.024 55.552-13.371 16.46-12.347 26.401-28.799 29.836-49.377l104.916-663.491zM505.074 802.224c20.57 0 38.058-7.199 52.465-21.606 14.4-14.4 21.594-31.883 21.594-52.459v-687.15c0-20.57-7.194-38.058-21.594-52.459-14.406-14.399-31.894-21.6-52.465-21.6H398.093c-20.576 0-38.058 7.201-52.459 21.6-14.406 14.4-21.606 31.889-21.606 52.459V728.16c0 20.576 5.488 38.058 16.458 52.459 10.976 14.406 27.088 21.606 48.347 21.606h116.241z m0-518.45c6.859 0 12.688 3.261 17.483 9.779 4.806 6.512 7.205 14.227 7.205 23.144 0 9.6-2.399 17.482-7.205 23.659-4.795 6.17-10.624 9.259-17.483 9.259H398.093c-6.859 0-12.689-3.089-17.488-9.259-4.801-6.177-7.199-14.06-7.199-23.659 0-8.917 2.399-16.632 7.199-23.144 4.799-6.518 10.63-9.779 17.488-9.779h106.981z m0 130.647c6.859 0 12.688 3.255 17.483 9.773 4.806 6.512 7.205 14.574 7.205 24.168 0 9.6-2.399 17.488-7.205 23.658-4.795 6.177-10.624 9.265-17.483 9.265H398.093c-6.859 0-12.689-3.088-17.488-9.265-4.801-6.17-7.199-14.058-7.199-23.658 0-9.594 2.399-17.656 7.199-24.168 4.799-6.518 10.63-9.773 17.488-9.773h106.981zM182.076 802.224c20.57 0 38.232-7.199 52.973-21.606 14.747-14.4 22.114-31.883 22.114-52.459v-687.15c0-20.57-7.367-38.058-22.114-52.459-14.741-14.399-32.403-21.6-52.973-21.6H75.094c-20.577 0-38.233 7.201-52.98 21.6C7.368 2.952 0 20.44 0 41.01V728.16c0 20.576 7.368 38.058 22.114 52.459 14.747 14.406 32.403 21.606 52.98 21.606h106.982zM79.206 545.06c-7.542 0-13.713-3.088-18.518-9.263-4.795-6.165-7.2-14.054-7.2-23.654 0-8.917 2.405-16.632 7.2-23.144 4.805-6.518 10.976-9.779 18.518-9.779h98.752c7.546 0 13.544 3.261 18.002 9.779 4.458 6.512 6.685 14.227 6.685 23.144 0 9.6-2.227 17.488-6.685 23.654-4.458 6.175-10.456 9.263-18.002 9.263H79.206z m102.87-323.004c7.54 0 13.538 3.089 17.997 9.259 4.458 6.171 6.691 13.717 6.691 22.63 0 9.606-2.233 17.321-6.691 23.144-4.458 5.829-10.456 8.749-17.997 8.749H79.206c-7.542 0-13.713-2.92-18.518-8.749-4.795-5.823-7.2-13.538-7.2-23.144 0-8.912 2.405-16.458 7.2-22.63 4.805-6.17 10.976-9.259 18.518-9.259h102.87z m0 126.529c7.54 0 13.538 3.082 17.997 9.259 4.458 6.17 6.691 14.058 6.691 23.652 0 9.606-2.233 17.494-6.691 23.665-4.458 6.17-10.456 9.259-17.997 9.259H79.206c-7.542 0-13.713-3.089-18.518-9.259-4.795-6.171-7.2-14.06-7.2-23.665 0-9.594 2.405-17.482 7.2-23.652 4.805-6.177 10.976-9.259 18.518-9.259h102.87z m0 0"  horiz-adv-x="1024" />

    
    <glyph glyph-name="qiyetongxunlu" unicode="&#59100;" d="M899.072 850.432H196.608c-43.008 0-78.336-35.328-78.336-77.824V655.36h-38.912c-23.552 0-38.912-15.36-38.912-38.912s15.36-38.912 38.912-38.912h38.912v-156.16h-38.912c-23.552 0-38.912-15.872-38.912-38.912 0-23.552 15.36-38.912 38.912-38.912h38.912v-156.16h-38.912c-23.552 0-38.912-15.872-38.912-38.912 0-23.552 15.36-38.912 38.912-38.912h38.912v-117.248c0-43.008 35.328-77.824 78.336-77.824h702.464c43.008 0 77.824 35.328 77.824 77.824V772.096c0.512 43.008-34.816 78.336-77.824 78.336z m0-859.136H196.608v117.248H235.52c23.552 0 38.912 15.872 38.912 38.912 0 23.552-15.36 38.912-38.912 38.912h-38.912V343.04H235.52c23.552 0 38.912 15.872 38.912 38.912 0 23.552-15.36 38.912-38.912 38.912h-38.912V577.024H235.52c23.552 0 38.912 15.36 38.912 38.912S259.072 655.36 235.52 655.36h-38.912V772.096h702.464v-780.8zM658.432 406.016c25.088 22.528 40.96 54.784 40.96 91.136 0 67.584-54.784 122.368-122.368 122.368S454.656 564.736 454.656 497.152c0-36.352 15.872-68.608 40.96-91.136-53.76-35.84-90.112-102.4-90.112-156.672 0-78.336 76.8-101.376 171.52-101.376s171.52 23.04 171.52 101.376c0 54.272-36.352 120.832-90.112 156.672z"  horiz-adv-x="1024" />

    
    <glyph glyph-name="tongxunlu" unicode="&#59101;" d="M899.072 850.432H196.608c-43.008 0-78.336-35.328-78.336-77.824V655.36h-38.912c-23.552 0-38.912-15.36-38.912-38.912s15.36-38.912 38.912-38.912h38.912v-156.16h-38.912c-23.552 0-38.912-15.872-38.912-38.912 0-23.552 15.36-38.912 38.912-38.912h38.912v-156.16h-38.912c-23.552 0-38.912-15.872-38.912-38.912 0-23.552 15.36-38.912 38.912-38.912h38.912v-117.248c0-43.008 35.328-77.824 78.336-77.824h702.464c43.008 0 77.824 35.328 77.824 77.824V772.096c0.512 43.008-34.816 78.336-77.824 78.336z m0-859.136H196.608v117.248H235.52c23.552 0 38.912 15.872 38.912 38.912 0 23.552-15.36 38.912-38.912 38.912h-38.912V343.04H235.52c23.552 0 38.912 15.872 38.912 38.912 0 23.552-15.36 38.912-38.912 38.912h-38.912V577.024H235.52c23.552 0 38.912 15.36 38.912 38.912S259.072 655.36 235.52 655.36h-38.912V772.096h702.464v-780.8zM774.144 159.232c31.232 31.232 81.92 66.56 15.36 120.832-66.56 54.784-86.016 27.136-117.248-4.096-19.456-19.456-74.24 23.552-120.832 70.144-46.592 46.592-89.6 101.376-70.144 120.832 31.232 31.232 58.368 50.688 4.096 117.248-54.784 66.56-89.6 15.36-120.832-15.872-35.328-35.328 0-160.256 124.928-285.184 124.928-123.904 249.856-155.136 284.672-123.904z"  horiz-adv-x="1024" />

    
    <glyph glyph-name="mendianjiagou" unicode="&#59103;" d="M337.92 418.304c-18.944-92.16-109.568-151.552-201.728-132.608C56.832 302.08 0 371.712 0 452.096c0 38.4 12.8 73.728 34.304 102.4l102.4 307.2h751.104l102.4-307.2c56.32-75.264 40.96-182.272-34.304-239.104-75.264-56.32-182.272-40.96-239.104 34.304-15.36 19.968-25.6 43.52-30.72 68.096h-6.656c-18.944-92.16-109.056-152.064-201.728-133.12-67.072 13.824-119.296 66.048-133.12 133.12 0 0.512-6.656 0.512-6.656 0.512zM307.2 281.6h68.096c32.256-43.008 82.944-68.096 136.704-68.096s104.448 25.088 136.704 68.096H716.8c32.256-43.008 82.944-68.096 136.704-68.096 24.064 0 47.616 5.12 68.096 14.336v-219.136c0-56.32-46.08-102.4-102.4-102.4H204.8c-56.32 0-102.4 46.08-102.4 102.4v219.136c21.504-9.216 44.544-14.336 68.096-14.336 53.76 0 104.448 25.088 136.704 68.096z m0-102.4v-204.8h68.096v204.8H307.2z"  horiz-adv-x="1024" />

    
    <glyph glyph-name="tianjiachengyuan" unicode="&#59104;" d="M768.180531 448c-141.312 0-256-114.688-256-256s114.688-256 256-256 256 114.688 256 256-114.688 256-256 256z m153.088-285.184h-124.928v-124.928h-58.368v124.928h-124.928v58.368h124.928v124.928h58.368v-124.928h124.928v-58.368zM467.124531 167.936c0 62.464 20.992 122.88 59.392 172.032 1.024 7.168 3.072 13.824 5.632 18.944 2.56 5.632 5.632 10.24 9.728 14.336 4.096 4.096 8.704 7.68 13.824 11.264 5.12 3.584 10.752 8.192 16.896 13.312 5.12 4.608 10.24 11.264 14.336 19.456 4.096 8.192 8.192 16.896 11.264 25.6 3.072 10.24 6.144 20.48 8.704 31.232 7.168 2.048 13.312 6.144 18.944 10.752 5.12 4.608 10.24 11.264 14.336 19.456 4.096 8.192 7.68 19.456 9.216 33.28 1.536 10.752 1.024 19.456-0.512 27.136-1.024 6.144-3.584 12.288-6.144 17.92-2.56 5.12-6.144 9.216-10.752 11.776 1.536 51.712-6.144 103.424-22.528 152.576-8.192 25.6-20.992 49.664-37.376 70.656-8.192 10.24-17.92 19.456-28.672 27.648-12.8 9.728-26.624 17.92-40.96 24.576-15.872 7.68-32.256 13.824-49.152 17.92C436.404531 893.952 417.972531 896 399.540531 896c-15.36 0-30.72-1.024-47.104-4.096C317.620531 886.272 284.852531 871.936 256.692531 850.432c-16.384-12.288-30.72-27.648-41.984-44.544-13.312-19.968-23.552-41.984-30.208-65.024-6.656-24.064-11.776-46.592-14.336-68.096-3.584-25.088-4.608-50.688-4.096-76.288-5.12-6.144-9.216-13.312-11.776-20.992-3.072-7.68-4.608-15.36-5.632-23.552-1.024-8.704 0-18.944 3.584-30.72 3.072-11.264 7.168-19.968 11.776-26.112 4.608-6.144 8.704-10.752 12.8-13.824 4.096-3.072 8.704-5.632 13.824-6.656 3.072-10.752 6.656-20.992 9.728-31.232 3.072-8.704 6.656-16.896 10.752-25.6 3.072-7.168 8.192-13.824 13.824-19.456 11.264-9.216 21.504-18.432 30.208-27.136 8.704-8.704 13.824-20.992 15.36-36.864 0.512-9.728 1.024-19.456 1.024-28.16 0-8.704-1.536-16.896-4.608-25.088-3.072-8.192-8.192-15.872-15.872-24.064-9.728-9.728-20.48-17.92-32.256-25.088-17.408-11.264-37.376-19.968-59.904-26.112-23.04-6.144-45.056-12.8-66.56-19.968-58.88-19.456-95.232-80.384-92.16-95.232 0-51.712 1.536-96.256 1.536-150.528 0-72.192 491.008-86.016 702.464-45.568-134.144 17.92-237.056 133.632-237.056 273.408z"  horiz-adv-x="1024" />

    
    <glyph glyph-name="hangzhengjiagou" unicode="&#59105;" d="M768.512 182.784l-182.784 72.704s-34.816 12.8-47.104 28.16c-9.216 9.216-9.216 28.16 0 53.76 6.144 25.088 100.864 132.608 100.864 226.816 0 147.968-97.792 267.776-217.6 267.776S204.288 712.192 204.288 563.712c0-91.136 84.992-201.728 94.72-220.672 9.216-18.944 6.144-50.176 0-59.904-12.8-12.8-56.832-28.16-56.832-28.16l-166.912-72.704c-37.888-15.872-69.12-50.176-69.12-91.136v-69.632c0-44.032 37.888-72.704 81.92-72.704h668.16c44.032 0 81.92 28.16 81.92 72.704v69.632c-0.512 40.96-32.256 78.848-69.632 91.648z m-31.744 340.48c-18.944 0-34.816 9.216-34.816 31.744 0 22.016 15.872 31.744 34.816 31.744h245.76c18.944 0 34.816-9.216 34.816-31.744 0-22.016-15.872-31.744-34.816-31.744h-245.76z m50.688-138.752c-18.944 0-34.816 9.216-34.816 31.744 0 22.016 15.872 31.744 34.816 31.744h198.656c18.944 0 31.744-9.216 31.744-31.744 0-22.016-15.872-31.744-34.816-31.744h-195.584z m66.048-129.024c-18.944 0-34.816 9.216-34.816 31.744 0 22.016 15.872 31.744 34.816 31.744h129.024c18.944 0 34.816-9.216 34.816-31.744 0-22.016-15.872-31.744-34.816-31.744h-129.024z"  horiz-adv-x="1024" />

    
    <glyph glyph-name="yuangonglizhi" unicode="&#59106;" d="M761.856 374.784c-133.632 0-241.664-108.032-241.664-241.152s108.032-241.152 241.664-241.152 241.664 108.032 241.664 241.152-108.032 241.152-241.664 241.152z m118.272-311.808l-47.616-47.616-70.144 70.144-70.656-70.656-48.64 48.64 70.656 70.656-70.144 70.144 47.616 47.616 70.144-70.144 70.656 70.656 48.64-48.64-70.656-70.656 70.144-70.144z m-406.016 70.656c0 55.808 16.384 107.52 44.032 151.552-1.024 8.192 0.512 17.92 6.144 30.208 30.72 41.472 49.152 88.064 50.688 103.424 0 0 47.104 37.376 50.176 93.184 3.072 55.808-10.24 58.368-10.24 58.368 19.968 60.928 26.112 288.768-120.32 261.632C470.016 879.616 316.928 916.992 245.76 790.016c-35.328-63.488-48.64-150.528-20.992-221.184-1.024-5.12-9.728 5.12-12.8-27.648-3.072-31.744 11.264-76.8 26.624-97.792 6.656-8.704 17.408-15.36 25.088-18.432 0 0 9.216-56.32 53.248-109.056 10.24-41.984-31.744-64-31.744-64-138.24-26.624-265.216-103.424-265.216-186.368v-64.512c0-90.112 209.92-109.568 398.848-109.568 56.832 0 115.712 5.12 169.984 13.312-69.632 52.736-114.688 135.68-114.688 228.864z"  horiz-adv-x="1024" />

    
    <glyph glyph-name="lizhi" unicode="&#59107;" d="M474.112 133.632c0 55.808 16.384 107.52 44.032 151.552-1.024 8.192 0.512 17.92 6.144 30.208 30.72 41.472 49.152 88.064 50.688 103.424 0 0 47.104 37.376 50.176 93.184 3.072 55.808-10.24 58.368-10.24 58.368 19.968 60.928 26.112 288.768-120.32 261.632C470.016 879.616 316.928 916.992 245.76 790.016c-35.328-63.488-48.64-150.528-20.992-221.184-1.024-5.12-9.728 5.12-12.8-27.648-3.072-31.744 11.264-76.8 26.624-97.792 6.656-8.704 17.408-15.36 25.088-18.432 0 0 9.216-56.32 53.248-109.056 10.24-41.984-31.744-64-31.744-64-138.24-26.624-265.216-103.424-265.216-186.368v-64.512c0-90.112 209.92-109.568 398.848-109.568 56.832 0 115.712 5.12 169.984 13.312-69.632 52.736-114.688 135.68-114.688 228.864zM762.88 373.248c-133.12 0-240.64-107.52-240.64-240.64s107.52-240.64 240.64-240.64 240.64 107.52 240.64 240.64c0 132.608-107.52 240.64-240.64 240.64z m168.448-182.272l-207.36-207.36-53.248 53.248-79.872 79.872 53.248 53.248 79.872-79.872 154.112 154.112 53.248-53.248z"  horiz-adv-x="1024" />

    
    <glyph glyph-name="gongxiangtongxunlu" unicode="&#59108;" d="M874.138 885.76H158.72A104.755 104.755 0 0 1 53.862 781.056v-135.27h20.941a43.674 43.674 0 0 0 0-87.04h-20.94v-131.124h20.94a43.674 43.674 0 0 0 0-87.04h-20.94v-130.918h20.94a43.674 43.674 0 0 0 0-87.04h-20.94v-135.22A104.755 104.755 0 0 1 158.72-117.76h715.418c57.804 0 96 46.9 96 104.755V781.056c0 57.805-38.298 104.704-96 104.704z m-140.34-830.771c-50.278-29.082-188.057 48.384-295.065 234.342S333.568 633.856 384 662.938c43.571 25.139 101.58 74.137 143.36-21.146s5.427-109.312-39.629-134.912c-31.385-18.227 3.584-95.13 43.162-163.84S619.52 204.8 650.906 223.13c45.056 26.163 75.161 51.2 136.55-32.87s-10.086-109.927-53.658-135.271z"  horiz-adv-x="1024" />

    
    <glyph glyph-name="qiyerenzheng" unicode="&#59109;" d="M367.616 733.184L512 877.568l144.384-144.384h204.288v-204.288l144.896-144.384-144.384-144.384V35.84h-204.288L512-109.568l-144.384 144.384h-204.8v204.288L18.432 384l144.384 144.384v204.8h204.8zM448.512 286.72L322.048 413.184l-54.272-54.272 181.248-181.248 307.712 307.712-54.272 54.272L448.512 286.72z"  horiz-adv-x="1024" />

    
    <glyph glyph-name="yuangongxiangqing" unicode="&#59110;" d="M886.272 749.056H137.728C75.776 748.544 25.6 698.368 25.6 636.416v-505.344c0-61.952 50.176-112.128 112.128-112.128h749.056c61.952 0 112.128 50.176 112.128 112.128V636.416c-0.512 61.952-50.688 112.64-112.64 112.64zM140.8 182.272c-12.288 2.56-19.968 14.336-17.408 26.624 13.824 74.24 67.584 134.144 139.776 155.648-37.888 20.992-61.44 60.928-61.44 103.936 0 65.536 51.712 118.272 115.712 118.272 63.488 0 115.712-53.248 115.712-118.272 0-43.52-23.552-83.456-61.44-103.936 72.192-21.504 126.464-81.92 139.776-156.16 2.56-12.288-5.632-24.064-17.408-26.624-1.536-0.512-2.56-0.512-4.096-0.512l-349.184 1.024zM650.24 521.728h161.28c12.8 0 24.576-18.944 24.576-32.256 0-13.824-11.776-32.256-24.576-32.256H650.24c-12.8 0-24.576 18.944-24.576 32.256 0 13.824 11.776 32.256 24.576 32.256z m0-129.536h161.28c12.8 0 24.576-18.432 24.576-32.256s-11.776-32.256-24.576-32.256H650.24c-12.8 0-24.576 18.432-24.576 32.256s11.776 32.256 24.576 32.256z m227.328-178.176h-228.352c-12.288 0-23.552 18.944-23.552 32.256 0 13.824 11.264 32.256 23.552 32.256h228.352c12.288 0 23.552-18.944 23.552-32.256 0-13.824-11.264-32.256-23.552-32.256z"  horiz-adv-x="1024" />

    
    <glyph glyph-name="mendianquanxian" unicode="&#59111;" d="M618.607753 464.092128C661.082815 482.003299 706.628363 491.214758 752.685659 491.214758h13.817189c22.005153 55.268755 27.634378 120.260717 16.375927 183.717437-25.587387 145.336356-162.735779 242.568426-306.536892 216.981039-143.801113-25.587387-265.597074-137.66014-240.009688-282.996497 5.629225-31.216612 20.469909-80.344394 38.38108-115.654988L13.210183 115.591921c-9.723207-13.817189-15.352432-38.892828-12.281945-55.780503l11.25845-64.480214c-10.746702 61.921476 3.070486-22.5169 11.25845-22.005153l85.973619-1.023495c16.375927 3.070486 37.357585 16.887675 46.569044 31.216612l103.373042 161.712284 1.023496 1.023495 90.579349-7.164468 120.772465 189.346661h1.023495c10.746702 14.840684 22.5169 28.657873 35.822342 41.963314 31.72836 31.216612 69.085944 56.292251 110.025763 73.691674zM70.014182 76.187346l-12.793693-5.629225 1.535243 13.817189 250.244642 363.340891 14.840684-13.817189-253.826876-357.711666zM450.754496 745.041634c39.404576 56.803998 117.701979 71.132935 173.994229 30.704864 56.803998-40.428071 70.10944-118.725474 30.704865-176.04122-39.404576-56.803998-79.832646-16.887675-136.636645 23.028648-56.292251 40.428071-107.978772 64.991962-68.062449 122.307708zM743.985947 426.222796c-151.477329 0-274.808533-122.819456-274.808533-274.808533s122.819456-274.808533 274.808533-274.808533 274.808533 122.819456 274.808534 274.808533-122.819456 274.808533-274.808534 274.808533z m79.832647-418.097899h-167.853257c-73.691674 20.981657-47.592539 123.331204-47.592539 123.331204 16.375927-41.451566 53.733512-41.451566 53.733512-41.451566l159.153545-1.535244c46.057296 5.117477 63.968467 44.522053 63.968467 44.522053 22.5169-132.030915-61.409728-124.866447-61.409728-124.866447z m30.704864 126.401691c-41.451566 0-56.292251 50.663026-56.292251 50.663025s0-49.63953-53.221764-50.663025h-0.511748-0.511748c-53.221764 1.023495-53.221764 50.663026-53.221764 50.663025s-14.840684-50.663026-56.292251-50.663025c-63.968467 0-50.663026 52.198269-50.663025 52.198268l10.234954 74.71517s1.535243 29.169621 22.005153 33.77535H872.434629c20.981657-4.60573 22.005153-33.77535 22.005152-33.77535l10.234955-74.71517s13.817189-52.198269-50.151278-52.198268z"  horiz-adv-x="1024" />

    
    <glyph glyph-name="icon_yunxiazai" unicode="&#59112;" d="M790.528 486.4c-18.432 141.824-136.704 252.416-278.528 252.416S251.904 628.736 233.472 486.4C117.76 478.72 25.6 378.88 25.6 258.048c0-125.952 99.84-228.864 220.672-228.864h533.504c120.832 2.56 218.112 102.4 218.112 228.864C998.4 378.88 906.24 478.72 790.528 486.4z m-286.208-389.12l-194.56 223.232h131.584V528.384h125.952v-207.872h131.584l-194.56-223.232z"  horiz-adv-x="1024" />

    
    <glyph glyph-name="xiangqing" unicode="&#58907;" d="M512 839.111111C261.233778 839.111111 56.888889 634.766222 56.888889 384c0-250.766222 204.344889-455.111111 455.111111-455.111111 250.766222 0 455.111111 204.344889 455.111111 455.111111 0 250.766222-204.344889 455.111111-455.111111 455.111111z m-5.006222-723.626667c-18.659556-10.467556-34.133333-15.928889-45.966222-15.928888a33.564444 33.564444 0 0 0-25.031112 9.557333c-5.916444 6.371556-9.102222 15.473778-9.102222 26.851555 0 36.408889 22.300444 125.610667 67.356445 267.605334a56.433778 56.433778 0 0 1 3.185777 17.749333c0 5.916444-2.730667 8.647111-8.192 8.647111a41.756444 41.756444 0 0 1-20.48-6.826666c-7.736889-4.551111-24.576-19.569778-50.972444-44.600889L398.222222 393.557333c30.037333 32.312889 56.888889 55.068444 81.464889 68.721778 24.576 13.653333 45.511111 20.48 62.805333 20.48 9.557333 0 16.839111-1.820444 21.845334-5.916444a20.536889 20.536889 0 0 0 7.736889-16.839111c0-8.647111-9.557333-44.600889-29.127111-107.861334-31.402667-103.765333-47.331556-166.115556-47.331556-187.505778a15.928889 15.928889 0 0 1 3.185778-10.467555c2.275556-2.730667 4.551111-4.096 6.826666-4.096 9.557333 0 34.133333 18.204444 73.272889 54.158222l17.294223-16.839111c-40.504889-37.319111-70.087111-61.44-89.201778-71.907556z m105.130666 486.968889c-9.102222-10.012444-19.114667-14.563556-30.492444-14.563555a30.151111 30.151111 0 0 0-22.300444 9.102222 32.995556 32.995556 0 0 0-9.102223 24.120889c0 13.198222 4.096 24.120889 13.198223 33.678222a41.472 41.472 0 0 0 30.947555 13.653333 31.232 31.232 0 0 0 31.857778-32.312888 51.768889 51.768889 0 0 0-14.108445-33.678223z"  horiz-adv-x="1024" />

    
    <glyph glyph-name="yd-icon-upload2" unicode="&#59116;" d="M512 780.288l322.56-322.56-53.76-53.76-230.4 230.4v-620.544H474.112V634.368l-230.4-230.4L189.44 457.728l322.56 322.56z"  horiz-adv-x="1024" />

    
    <glyph glyph-name="yishenhe" unicode="&#59118;" d="M937.472 18.944H86.528C52.736 18.944 25.6 46.08 25.6 79.872v121.344c0 33.792 27.136 60.928 60.928 60.928h364.544V392.704C321.024 425.984 242.688 558.592 276.48 688.64S442.88 897.024 572.928 863.232s208.384-166.4 174.592-296.448c-22.016-85.504-89.088-152.064-174.592-174.08v-130.048h364.544c33.792 0 60.928-27.136 60.928-60.928v-121.856c0-33.792-27.136-60.928-60.928-60.928zM177.664-41.472h668.672c16.896 0 30.208-13.824 30.208-30.208 0-16.896-13.824-30.208-30.208-30.208H177.664c-16.896 0-30.208 13.824-30.208 30.208s13.312 30.208 30.208 30.208z"  horiz-adv-x="1024" />

    
    <glyph glyph-name="daishenpi" unicode="&#59119;" d="M809.472-44.032H788.48c-14.848 0-26.624-11.776-26.624-26.112s11.776-26.112 26.624-26.112h21.504c14.848 0 26.624 11.776 26.624 26.112-0.512 14.336-12.288 26.112-27.136 26.112zM931.84 500.224L537.6 864.256 428.032 750.592l394.24-364.032L931.84 500.224z m-260.608-544.256H118.784c-14.848 0-26.624-11.776-26.624-26.112s11.776-26.112 26.624-26.112h552.448c14.848 0 26.624 11.776 26.624 26.112s-11.776 26.112-26.624 26.112z m-485.376 604.16l-66.048-492.544 254.464 264.704c-16.896 25.6-14.848 59.904 7.68 82.944 26.112 27.136 70.144 28.16 97.792 2.56 27.648-25.6 29.184-68.608 3.072-95.744-22.528-23.552-57.856-27.136-84.992-11.776L143.36 46.08l499.2 93.184-4.096 3.584 97.28 253.44-296.96 272.896-252.928-109.056z"  horiz-adv-x="1024" />

    
    <glyph glyph-name="yishenpi" unicode="&#59120;" d="M860.672-93.696l-684.032-13.312c-41.472 0-74.752 34.304-74.752 76.288V571.904c0 41.984 33.28 76.288 74.752 76.288H317.44c24.576 0 47.104-12.288 61.44-32.256 7.168-10.752 11.776-17.408 16.896-23.04 60.416-61.44 170.496-63.488 232.448 1.024 8.704 8.704 14.336 15.872 19.456 23.04 13.824 19.968 36.864 31.744 60.416 31.744h139.776c41.472 0 74.752-34.304 74.752-76.288V-30.72c-0.512-41.984-20.48-62.976-61.952-62.976z m-85.504 499.2c-15.872 15.872-40.448 16.896-54.784 2.048l-228.352-232.448c-15.36 14.336-162.304 149.504-162.304 149.504-15.872 15.872-41.472 15.872-56.832 0-15.872-15.872-15.872-41.472 0-56.832l165.376-159.744c21.504-18.944 27.648-28.16 53.76-27.136 29.184 1.536 44.544 13.824 53.76 27.136l231.936 242.688c14.336 14.848 13.312 39.424-2.56 54.784z m-173.056 246.784c-23.04-23.552-54.784-38.4-90.112-38.4-35.328 0-67.584 14.848-91.136 38.4-7.168 7.68-13.824 15.872-18.944 25.088v0.512l-0.512 0.512v0.512l-0.512 0.512c-10.752 19.456-16.384 41.984-16.384 64.512 0 72.704 57.344 130.56 128 130.56 35.328 0 67.072-14.336 90.112-37.888 23.552-24.064 37.888-57.344 37.888-93.184-0.512-33.792-13.824-67.072-38.4-91.136z"  horiz-adv-x="1024" />

    
    <glyph glyph-name="jixiaoguanli" unicode="&#58947;" d="M311.83 449.58a54 54 0 1 0-54-54 54.06 54.06 0 0 0 54 54m0 36a90 90 0 1 1 90-90 90 90 0 0 1-90 90zM609.83 622.59a54 54 0 1 0-54-54 54.06 54.06 0 0 0 54 54m0 36a90 90 0 1 1 90-90 90 90 0 0 1-90 90zM426.57-1.61h-246A116.44 116.44 0 0 0 64.22 114.7V714.85A116.44 116.44 0 0 0 180.53 831.16h600.16A116.44 116.44 0 0 0 897 714.85v-257.41a18 18 0 1 0-36 0V714.85a80.4 80.4 0 0 1-80.31 80.31H180.53a80.4 80.4 0 0 1-80.31-80.31V114.7a80.4 80.4 0 0 1 80.31-80.31h246a18 18 0 0 0 0-36zM242.09 394a17.92 17.92 0 0 0-11.31 4L70.9 527.35a18 18 0 1 0 22.64 28L253.42 426a18 18 0 0 0-11.33-32zM383 395a18 18 0 0 0-11 32.3l159.25 121.81a18 18 0 1 0 21.88-28.59L393.94 398.71A17.92 17.92 0 0 0 383 395zM879 438.6a17.92 17.92 0 0 0-10 3L669.15 575.5a18 18 0 0 0 20 29.91L889 471.56a18 18 0 0 0-10-33zM788.17-63.69a33 33 0 0 0-25.53 12.08 41.7 41.7 0 0 1-64.66 0 33.19 33.19 0 0 0-42.38-7.46l-80.11 47a33.25 33.25 0 0 0-14.43 39.81 44.69 44.69 0 0 1-3.22 37.13 42.4 42.4 0 0 1-29.77 21.09 33.09 33.09 0 0 0-27.64 32.72v93.81a33.09 33.09 0 0 0 27.66 32.73 42.25 42.25 0 0 1 29.76 21.1 44.6 44.6 0 0 1 2.91 38A33 33 0 0 0 575 344.76l79.64 46.77a33.32 33.32 0 0 0 42.8-8 41.71 41.71 0 0 1 65.77 0 33.25 33.25 0 0 0 42.79 8l79.61-46.73a33 33 0 0 0 14.19-40.45 44.58 44.58 0 0 1 2.92-38 42.39 42.39 0 0 1 29.74-21.09 33.19 33.19 0 0 0 27.7-32.56v-94a33.1 33.1 0 0 0-27.63-32.7 42.4 42.4 0 0 1-29.76-21.1 44.69 44.69 0 0 1-3.21-37.13A33.18 33.18 0 0 0 885.14-12L805-59.07a33.17 33.17 0 0 0-16.83-4.62z m-192.46 81.46l76.09-44.6a77.67 77.67 0 0 0 117 0l76.09 44.69a80.66 80.66 0 0 0 6.55 64.82 78.31 78.31 0 0 0 52.72 38.39v89.12a78.33 78.33 0 0 0-52.75 38.36 80.48 80.48 0 0 0-6.08 66.4l-75.46 44.3a77.7 77.7 0 0 0-119.16 0l-75.5-44.35a80.48 80.48 0 0 0-6.06-66.37 78.14 78.14 0 0 0-52.72-38.38V121a78.3 78.3 0 0 0 52.72-38.38 80.67 80.67 0 0 0 6.56-64.85z m330.77 192z m-135 151.42zM730.31 84.58A81.65 81.65 0 1 0 812 166.23a81.74 81.74 0 0 0-81.69-81.65z m0 127.3A45.65 45.65 0 1 1 776 166.23a45.7 45.7 0 0 1-45.69 45.65z"  horiz-adv-x="1024" />

    
    <glyph glyph-name="xingbienv" unicode="&#59121;" d="M648.192 176.64s-58.368-152.064-163.328-147.456c-104.96 3.584-174.592 147.456-174.592 147.456s-139.776-77.824-171.008-131.584c-31.744-58.368-18.944-144.384-18.944-144.384h715.264s18.944 112.64-11.264 147.456c-39.936 50.688-144.384 116.224-176.128 128.512zM828.416 348.672c3.584 38.4 14.848 79.872 24.576 120.32 17.92 65.536 33.792 127.488 17.92 174.592-29.184 86.528-67.584 180.224-168.96 199.168-20.992 5.12-41.472 6.144-60.416 7.168 12.288-7.68 21.504-22.528 21.504-38.4 0-5.632-1.024-11.264-3.584-16.896 9.216-7.68 17.92-17.92 27.136-29.184 10.24-13.312 20.48-24.576 28.16-33.792 27.136-29.184 45.056-49.664 43.008-124.928-1.024-44.032 1.024-69.632 3.584-89.088 2.048-24.576 3.584-39.424-3.584-65.536-12.288-47.104-60.928-96.768-62.976-97.792l-1.024-4.608-7.68-30.208c1.024-10.24 9.216-109.056 92.16-113.664 66.56-4.608 110.592 11.264 128.512 18.944-25.088 10.24-84.992 43.008-78.336 123.904zM686.592 351.232l2.048 7.68c11.264 11.264 50.688 54.272 60.928 94.72 11.264 45.056-2.048 55.296 0 152.064s-28.16 96.768-69.632 153.088c-9.216 12.288-17.92 21.504-27.136 29.184-7.68-11.264-20.48-18.944-34.816-18.944-18.944 0-34.816 12.288-39.424 30.208-5.632-3.584-13.312-5.632-21.504-5.632-21.504 0-39.424 16.896-40.448 38.4l-10.24 1.024c-93.696 12.288-154.112-27.136-224.256-79.872-75.264-56.32-75.264-158.72-69.632-259.072 5.632-95.744 66.56-124.928 68.608-125.952l7.68-3.584-1.024 4.608c28.16-107.008 105.984-184.832 199.168-184.832 89.088 0 165.376 72.192 196.096 173.568l-1.024-11.264 4.608 4.608z m-17.92 97.792c0-133.12-84.48-245.76-185.856-245.76-102.4 0-185.856 110.592-185.856 245.76 0 11.264 1.024 17.92 2.048 23.552 0 2.048 1.024 4.608 1.024 7.68 0 1.024 2.048 10.24 4.608 21.504 2.048 0 5.632 1.024 7.68 1.024 49.664 4.608 151.04 13.312 234.496 100.352 17.92-37.376 79.872-68.608 118.272-85.504 2.048-14.848 2.048-22.528 2.048-30.208 0-5.632 0-12.288 1.024-22.528v-15.872zM558.08 802.816c7.68 0 14.848 2.048 21.504 7.68l6.656 5.632 1.024-9.216c1.024-16.896 15.872-29.184 31.744-29.184 17.92 0 32.768 14.848 32.768 32.768-1.024 17.92-15.872 32.768-32.768 32.768-7.68 0-14.848-2.048-21.504-7.68l-6.656-5.632-1.024 9.216c-1.024 16.896-15.872 29.184-31.744 29.184-17.92 0-32.768-14.848-32.768-32.768s14.848-32.768 32.768-32.768z"  horiz-adv-x="1024" />

    
    <glyph glyph-name="xingbienan" unicode="&#59122;" d="M855.552 134.656c-45.568 38.4-205.312 81.408-205.312 81.408 52.224-158.72-79.36-292.352-79.36-292.352l-30.72 209.92 13.824 10.24-13.824 24.064h-40.96l-13.824-24.064 13.824-10.24-20.48-212.992c-133.632 86.016-106.496 295.936-106.496 295.936-58.88-3.584-166.912-36.352-224.256-96.256s-40.96-216.576-40.96-216.576h808.448c13.824 57.344-17.92 209.408-59.904 230.912zM761.344 662.016c-19.456 97.28-154.112 132.608-183.808 144.896-14.848 11.264-17.92 21.504-22.528 56.832-1.024 1.024-21.504-52.224-25.088-52.224-2.048 0 14.848 54.272 12.288 53.248-3.584-1.024-32.768-55.808-37.376-57.856-2.048-1.024 19.456 51.2 16.896 49.664-45.568-20.48-120.32-72.704-120.32-72.704l14.848 59.904c-51.2-22.528-162.304-137.216-162.304-263.168 0-100.864 26.112-129.024 36.352-136.192l20.48-29.696c16.896-122.368 100.864-210.944 199.68-210.944 99.84 0 185.856 91.648 199.68 214.528v2.048l14.848 14.848c-1.024 2.048 54.784 129.024 36.352 226.816z m-69.12-192c1.024-3.584 1.024-6.656 0-10.24v-3.584c0-126.976-81.408-230.4-182.784-230.4s-182.784 103.424-182.784 230.4V491.52c13.824 22.528 28.16 52.224 39.936 86.016 121.344-35.328 196.096-36.352 274.432 4.608 8.192-26.112 29.696-64.512 48.64-96.256l2.56-15.872z"  horiz-adv-x="1024" />

    
    <glyph glyph-name="qiyeshezhi" unicode="&#59123;" d="M512 880.128C238.08 880.128 15.872 657.92 15.872 384c0-273.92 222.208-496.128 496.128-496.128 273.92 0 496.128 222.208 496.128 496.128 0 273.92-222.208 496.128-496.128 496.128z m3.584-806.4c-14.336 0-158.72 121.344-158.72 139.776 0 17.92 117.248 343.552 117.248 343.552l-77.312 97.28c-11.264 14.336-9.216 39.936 23.04 39.936h192.512c32.256 0 34.304-25.6 23.04-39.936l-77.824-96.768s117.248-325.632 117.248-343.552c0-18.432-144.384-140.288-159.232-140.288z"  horiz-adv-x="1024" />

    
    <glyph glyph-name="tongxunlu_icon" unicode="&#59124;" d="M950.272 463.36h-152.064c-20.992 0-37.888-16.896-37.888-37.888 0-20.992 16.896-37.888 37.888-37.888h152.064c20.992 0 37.888 16.896 37.888 37.888 0 20.992-16.896 37.888-37.888 37.888m0 152.064h-152.064c-20.992 0-37.888-16.896-37.888-37.888s16.896-37.888 37.888-37.888h152.064c20.992 0 37.888 16.896 37.888 37.888s-16.896 37.888-37.888 37.888m-152.064 76.288h152.064c20.992 0 37.888 16.896 37.888 37.888s-16.896 37.888-37.888 37.888h-152.064c-20.992 0-37.888-16.896-37.888-37.888s16.384-37.888 37.888-37.888M814.08 235.008c-6.144 2.56-115.712 50.688-236.032 74.752 13.824 11.264 26.112 25.088 36.864 39.424 26.112 35.84 39.936 78.336 39.936 122.88V596.48c0 66.56-31.744 129.024-85.504 168.448-35.84 26.624-78.848 40.96-123.392 40.96-115.2 0-208.896-93.696-208.896-209.408v-124.416c0-67.072 31.744-126.976 81.408-165.376-114.688-24.576-215.552-68.608-220.672-71.168-34.816-13.824-60.928-53.248-60.928-90.624v-156.672l2.048-6.144c11.264-33.28 41.984-55.296 75.776-55.296h680.96c39.424 0 72.192 29.696 77.312 67.584l0.512 150.016c0 17.92-6.144 36.352-16.384 52.224-10.24 17.408-25.6 31.232-43.008 38.4"  horiz-adv-x="1024" />

    
    <glyph glyph-name="shezhiziguanliyuan" unicode="&#59125;" d="M512 368.64c-143.36 0-261.12 158.72-261.12 291.84S368.64 896 512 896s261.12-107.52 261.12-240.64-117.76-286.72-261.12-286.72z m-460.8-307.2c0 66.56 51.2 138.24 112.64 168.96l112.64 51.2 87.04-276.48s0-25.6 46.08-25.6c40.96 0 40.96 25.6 40.96 25.6v225.28s0 51.2 56.32 51.2 56.32-51.2 56.32-51.2v-225.28s15.36-30.72 51.2-30.72 40.96 30.72 40.96 30.72l87.04 276.48 112.64-51.2c61.44-30.72 112.64-102.4 112.64-168.96v-71.68c0-66.56-56.32-117.76-128-117.76H179.2c-71.68 0-128 51.2-128 117.76v71.68z"  horiz-adv-x="1024" />

    
    <glyph glyph-name="tuanduichengyuan" unicode="&#59126;" d="M268.288 140.8H76.8c-27.136 0-48.64 20.48-48.64 46.592v3.584c0.512 3.584 1.024 7.168 2.048 10.752 12.8 50.688 55.808 90.624 109.568 101.888 0.512 0 1.024-0.512 1.536-0.512h0.512c-34.304 12.288-58.88 43.52-58.88 80.384 0 47.104 40.448 85.504 90.112 85.504s90.112-38.4 90.112-85.504c0-36.352-24.064-68.096-57.856-79.872 53.76-11.264 96.256-50.688 109.568-101.888 1.024-3.584 2.048-7.168 2.048-10.752v-3.584c0-25.6-21.504-46.592-48.64-46.592M206.848 272.384v1.024c-9.216 6.656-18.432 8.704-25.6 8.704h-0.512c-7.68 0-16.384-2.048-25.6-8.704v-1.024s6.144-14.848 15.872-23.04l-30.208-60.928 39.936-31.744v-0.512l39.936 31.744-30.208 60.928c9.728 8.704 16.384 23.552 16.384 23.552zM949.76 140.8h-191.488c-27.136 0-48.64 20.48-48.64 46.592v3.584c0.512 3.584 1.024 7.168 2.048 10.752 12.8 50.688 55.808 90.624 109.568 101.888 0.512 0 1.024-0.512 1.536-0.512h0.512c-34.304 12.288-58.88 43.52-58.88 80.384 0 47.104 40.448 85.504 90.112 85.504s90.112-38.4 90.112-85.504c0-36.352-24.064-68.096-57.856-79.872 53.76-11.264 96.256-50.688 109.568-101.888 1.024-3.584 2.048-7.168 2.048-10.752v-3.584c0.512-25.6-21.504-46.592-48.64-46.592M888.32 272.384v1.024c-9.216 6.656-18.432 8.704-25.6 8.704h-0.512c-7.68 0-16.384-2.048-25.6-8.704v-1.024s6.144-14.848 15.872-23.04l-30.208-60.928 39.936-31.744v-0.512l39.936 31.744-30.208 60.928c10.24 8.704 16.384 23.552 16.384 23.552zM329.728 56.32c-52.224 0-94.72 41.984-94.72 93.696 0 2.56 0 5.12 0.512 7.68 0.512 7.168 2.048 14.848 4.096 21.504 25.6 102.4 108.544 182.272 213.504 204.288 1.024-0.512 1.536-0.512 2.56-1.024-66.56 24.576-114.176 88.064-114.176 162.304 0 95.232 78.336 172.544 175.104 172.544s175.104-77.312 175.104-172.544c0-73.728-46.592-136.192-112.64-161.28 104.96-22.528 187.904-102.4 213.504-204.288 2.56-7.168 3.584-14.336 4.096-21.504 0-2.56 0.512-5.12 0.512-7.68 0.512-51.2-41.984-93.696-94.72-93.696H329.728zM702.464 19.456H329.728c-72.704 0-131.584 58.368-131.584 130.048 0 3.072 0 5.12 0.512 10.24 1.024 10.752 3.072 20.992 5.632 29.184 22.016 88.064 82.944 162.816 165.888 203.776-41.472 39.424-65.536 94.208-65.536 151.552 0 115.2 95.232 209.408 211.968 209.408 116.736 0 211.968-93.696 211.968-209.408 0-57.856-24.064-112.64-66.048-151.552 82.432-40.96 143.36-115.2 165.376-203.776 3.072-8.704 5.12-18.432 5.632-29.184l0.512-5.12v-5.12c0-34.304-13.312-66.56-37.376-91.648-25.088-24.576-58.368-38.4-94.208-38.4zM516.608 717.312C419.84 717.312 341.504 640 341.504 544.768c0-55.808 27.648-108.544 74.24-141.312l28.672-19.968-32.256-12.288C325.632 338.944 261.12 266.752 239.616 179.2c-2.56-7.168-3.584-14.336-4.096-21.504 0-3.584-0.512-5.12-0.512-7.68 0-51.712 42.496-93.696 94.72-93.696h373.248c25.6 0 49.664 10.24 67.584 28.16 17.408 17.408 27.136 40.96 27.136 65.536l-0.512 7.68c-0.512 7.68-2.048 14.848-4.096 21.504-22.016 88.064-86.016 159.744-171.52 192l-32.768 12.288 28.672 19.968c46.592 32.256 74.752 84.992 74.752 141.312-0.512 95.232-78.848 172.544-175.616 172.544zM580.096 332.288v2.048c-19.968 14.336-38.912 18.432-54.784 17.92h-1.024c-15.872 0.512-34.816-3.584-54.784-17.92v-2.048s13.312-30.72 33.792-48.128l-63.488-126.976 84.992-66.048 0.512 0.512 0.512 0.512v-0.512l84.992 66.048-63.488 126.976c18.944 17.408 32.768 47.616 32.768 47.616z"  horiz-adv-x="1024" />

    
    <glyph glyph-name="shujukaifa-huishouzhan" unicode="&#59139;" d="M192 576H96c-19.2 0-32 12.8-32 32v64c0 19.2 12.8 32 32 32h224V800c0 19.2 12.8 32 32 32h320c19.2 0 32-12.8 32-32v-96h224c19.2 0 32-12.8 32-32v-64c0-19.2-12.8-32-32-32h-96v-608c0-19.2-12.8-32-32-32H224c-19.2 0-32 12.8-32 32V576z m192 192v-64h256v64H384z m0-256v-448h64V512h-64z m192 0v-448h64V512h-64z"  horiz-adv-x="1024" />

    
    <glyph glyph-name="gukedown" unicode="&#58981;" d="M398.222222 14.222222c0 159.288889 125.155556 284.444444 284.444445 284.444445s284.444444-125.155556 284.444444-284.444445H398.222222z m284.444445 284.444445c-96.711111 0-170.666667 73.955556-170.666667 170.666666s73.955556 170.666667 170.666667 170.666667 170.666667-73.955556 170.666666-170.666667-73.955556-170.666667-170.666666-170.666666zM546.133333 327.111111C494.933333 378.311111 420.977778 412.444444 341.333333 412.444444c-159.288889 0-284.444444-125.155556-284.444444-284.444444h301.511111c34.133333 91.022222 102.4 159.288889 187.733333 199.111111zM341.333333 412.444444c-96.711111 0-170.666667 73.955556-170.666666 170.666667s73.955556 170.666667 170.666666 170.666667 170.666667-73.955556 170.666667-170.666667-73.955556-170.666667-170.666667-170.666667z"  horiz-adv-x="1024" />

    
    <glyph glyph-name="oa_nofind" unicode="&#58897;" d="M149.333333-72.96000000000004c0-11.946667 154.88-21.76 345.6-21.76s345.6 9.813333 345.6 21.76-154.88 21.76-345.6 21.76-345.6-9.813333-345.6-21.76M372.906667 683.9466669999999H806.4c8.533333 0 15.36-6.826667 15.36-15.36v-657.493334c0-8.533333-6.826667-15.36-15.36-15.36H372.906667c-8.533333 0-15.36 6.826667-15.36 15.36V668.586667c0 8.106667 7.253333 15.36 15.36 15.36z m0 0M704.853333-71.67999999999995c32.853333 1.28 58.453333 32.426667 58.453334 68.266667V596.48c0 14.506667-9.813333 26.453333-21.76 26.453333H284.586667c-13.226667-1.28-23.466667-13.226667-22.186667-26.453333v-641.706667c-0.853333-13.226667 8.96-24.746667 22.186667-26.026666l420.266666-0.426667z m0 0M720.64 117.75999999999999c0-8.106667-6.4-14.506667-14.506667-14.506667H320.853333c-5.12 0-9.813333 2.56-12.373333 7.253334-2.56 4.266667-2.56 9.813333 0 14.506666 2.56 4.266667 7.253333 7.253333 12.373333 7.253334h385.28c7.68 0 14.08-6.4 14.506667-14.506667m0 104.96c0-3.84-1.28-7.68-4.266667-10.24-2.56-2.56-6.4-4.266667-10.24-4.266667H320.853333c-5.12 0-9.813333 2.56-12.373333 7.253334-2.56 4.266667-2.56 9.813333 0 14.506666 2.56 4.266667 7.253333 7.253333 12.373333 7.253334h385.28c7.68-0.426667 14.08-6.826667 14.506667-14.506667m0 104.533333c0-8.106667-6.4-14.506667-14.506667-14.506666H320.853333c-5.12 0-9.813333 2.56-12.373333 7.253333-2.56 4.266667-2.56 9.813333 0 14.506667 2.56 4.266667 7.253333 7.253333 12.373333 7.253333h385.28c7.68 0 14.08-6.4 14.506667-14.506667m0 103.68c0-8.106667-6.4-14.506667-14.506667-14.506666H320.853333c-8.106667 0-14.506667 6.4-14.506666 14.506666s6.4 14.506667 14.506666 14.506667h385.28c7.68-0.426667 14.08-6.826667 14.506667-14.506667M648.96-2.9866670000000113v47.786667H215.04v-47.786667c0-37.12 26.453333-67.413333 61.013333-67.413333h2.986667v1.706667H708.266667c-32.426667 0-59.306667 29.44-59.306667 65.706666M861.44 741.12c0-7.68 3.84-14.506667 10.666667-18.346667 6.4-3.84 14.506667-3.84 20.906666 0 6.4 3.84 10.666667 10.666667 10.666667 18.346667 0 7.68-3.84 14.506667-10.666667 18.346667-6.4 3.84-14.506667 3.84-20.906666 0-6.826667-4.266667-10.666667-11.093333-10.666667-18.346667z m0 0M302.933333 829.013333c0-5.546667 4.693333-9.813333 9.813334-9.813333 5.546667 0 9.813333 4.693333 9.813333 9.813333v23.466667c0 5.546667-4.693333 9.813333-9.813333 9.813333C307.2 862.293333 302.933333 857.6 302.933333 852.48v-23.466667zM881.493333 267.09333300000003c0-2.133333 2.133333-4.693333 4.693334-4.693333 2.133333 0 4.693333 2.133333 4.693333 4.693333v11.52c0 2.133333-2.133333 4.693333-4.693333 4.693334-2.133333 0-4.693333-2.133333-4.693334-4.693334v-11.52zM271.36 820.053333c-5.546667 0-9.813333-4.693333-9.813333-9.813333 0-6.4 4.693333-10.666667 9.813333-10.666667h22.613333c5.546667 0 9.813333 4.693333 9.813334 9.813334 0 5.546667-4.693333 9.813333-9.813334 9.813333h-22.613333M865.706667 262.82666700000004c-2.133333 0-4.693333-2.133333-4.693334-4.693334 0-2.133333 2.133333-4.693333 4.693334-4.693333h11.52c2.133333 0 4.693333 2.133333 4.693333 4.693333 0 2.133333-2.133333 4.693333-4.693333 4.693334h-11.52M302.933333 764.16c0-5.546667 4.693333-9.813333 9.813334-9.813333 5.546667 0 9.813333 4.693333 9.813333 9.813333v23.466667c0 5.546667-4.693333 9.813333-9.813333 9.813333-5.546667 0-9.813333-4.693333-9.813334-9.813333v-23.466667zM881.493333 235.51999999999998c0-2.133333 2.133333-4.693333 4.693334-4.693333 2.133333 0 4.693333 2.133333 4.693333 4.693333v11.52c0 2.133333-2.133333 4.693333-4.693333 4.693333-2.133333 0-4.693333-2.133333-4.693334-4.693333v-11.52zM333.653333 820.053333c-5.546667 0-9.813333-4.693333-9.813333-9.813333 0-6.4 4.693333-10.666667 9.813333-10.666667h22.613334c5.546667 0 9.813333 4.693333 9.813333 9.813334 0 5.546667-4.693333 9.813333-9.813333 9.813333h-22.613334M897.706667 262.82666700000004c-2.133333 0-4.693333-2.133333-4.693334-4.693334 0-2.133333 2.133333-4.693333 4.693334-4.693333h11.52c2.133333 0 4.693333 2.133333 4.693333 4.693333 0 2.133333-2.133333 4.693333-4.693333 4.693334h-11.52M148.906667 404.053333c-21.333333 0-38.4 17.066667-38.4 38.4 0 22.613333 17.066667 39.68 38.4 39.68s38.4-17.066667 38.4-38.4c1.28-21.333333-16.64-39.68-38.4-39.68z m0 55.466667c-8.96 0-15.786667-6.826667-15.786667-15.786667s6.826667-15.786667 15.786667-15.786666 15.786667 6.826667 15.786666 15.786666c0.426667 9.386667-6.4 15.786667-15.786666 15.786667z m0 0"  horiz-adv-x="1024" />

    
    <glyph glyph-name="xiala" unicode="&#58927;" d="M657.207 473.277L527.382 331.31a20.43 20.43 0 0 0-15.346-6.943 20.43 20.43 0 0 0-15.347 6.943L366.864 473.277c-6.338 6.694-8.296 16.45-5.02 25.067s11.18 14.635 20.367 15.454h259.542a24 24 0 0 0 20.44-15.418c3.31-8.653 1.352-18.373-4.986-25.103z"  horiz-adv-x="1024" />

    
    <glyph glyph-name="anquan" unicode="&#58958;" d="M200.5 381.4c0 28.7 23.3 52 52 52s52-23.3 52-52-23.3-52-52-52-52 23.3-52 52z m259.8 0c0 28.7 23.3 52 52 52s52-23.3 52-52-23.3-52-52-52c-28.7 0.1-52 23.3-52 52z m259.8 0c0 28.7 23.3 52 52 52s52-23.3 52-52-23.3-52-52-52-52 23.3-52 52z"  horiz-adv-x="1024" />

    
    <glyph glyph-name="xinyongzhibiaoguanli" unicode="&#58883;" d="M907.392 781.44a32.768 32.768 0 0 1-15.872 2.24H768.256a32 32 0 0 1 0-64h47.616L639.744 543.552 408.896 774.4639999999999A33.472 33.472 0 0 1 383.808 784a33.024 33.024 0 0 1-24.704-9.472l-253.696-253.76a33.152 33.152 0 0 1 46.848-46.848l231.232 231.296 231.168-231.168c6.848-6.912 16-9.92 25.088-9.536a33.024 33.024 0 0 1 25.088 9.536l199.424 199.424v-49.728a32 32 0 0 1 64 0v128a31.808 31.808 0 0 1-20.864 29.696zM128.256 239.74400000000003a32 32 0 0 1-32-32v-192a32 32 0 1 1 64 0v192a32 32 0 0 1-32 32z m256 224a32 32 0 0 1-32-32v-416a32 32 0 0 1 64 0v416a32 32 0 0 1-32 32z m519.872-187.648h-1.92c-32.128 0-58.24 27.648-58.24 61.632 0 11.264 5.056 23.488 5.056 23.616a28.8 28.8 0 0 1-8.896 33.728l-0.576 0.384-56 33.024-0.576 0.256a28.48 28.48 0 0 1-31.744-6.72c-6.848-7.488-28.416-26.88-45.888-26.88-17.472 0-39.232 19.776-46.08 27.392a28.672 28.672 0 0 1-21.056 9.216 25.472 25.472 0 0 1-10.624-2.24l-0.64-0.256-57.92-33.792-0.576-0.384a28.864 28.864 0 0 1-8.96-33.728c0-0.128 5.056-12.352 5.056-23.616 0-33.984-26.112-61.632-58.24-61.632h-1.92c-9.344 0.128-17.024-8.512-19.456-22.144-0.192-1.024-4.672-26.496-4.672-46.528s4.48-45.376 4.672-46.528c2.432-13.376 9.856-22.016 19.072-22.016h2.304c32.128 0 58.24-27.648 58.24-61.76 0-11.136-5.056-23.488-5.056-23.488a28.864 28.864 0 0 1 8.896-33.728l0.512-0.384 54.976-32.64 0.576-0.256a28.352 28.352 0 0 1 31.808 7.104c6.464 7.36 28.864 28.48 46.848 28.48s40.128-20.992 47.104-29.12a27.84 27.84 0 0 1 31.744-7.232l0.64 0.256 56.896 33.344 0.64 0.384a28.992 28.992 0 0 1 8.896 33.728s-5.056 12.352-5.056 23.488c0 34.112 26.112 61.76 58.24 61.76h1.92c9.344-0.256 17.024 8.512 19.456 22.016 0.192 1.152 4.672 26.496 4.672 46.528s-4.48 45.504-4.672 46.528c-2.432 13.76-10.112 22.336-19.456 22.208zM861.312 174.39999999999998c-36.16-1.984-65.088-33.984-65.088-73.024 0-12.992 4.736-25.472 5.76-28.032L758.848 48h-0.128c-0.64 0-1.216 0.128-1.344 0.384a121.088 121.088 0 0 1-16.064 15.104c-13.44 10.624-26.176 16-38.016 16-11.712 0-24.384-5.376-37.76-15.744-8.96-6.976-15.168-14.016-15.936-14.848a3.392 3.392 0 0 0-1.344-0.384h-0.128l-41.664 24.768c1.088 2.624 5.824 15.104 5.824 28.096 0 38.976-28.864 70.976-65.088 73.024a225.152 225.152 0 0 0-3.392 33.28c0 12.864 2.816 30.016 3.328 33.152 36.224 1.984 65.152 33.984 65.152 73.024 0 12.992-4.736 25.344-5.76 28.032l44.032 25.728h0.128c0.768 0 1.408-0.256 1.6-0.512 0.768-0.768 6.912-7.488 15.872-14.272 13.12-9.984 25.6-15.104 37.056-15.104 11.328 0 23.68 4.992 36.8 14.848 8.896 6.656 14.976 13.248 15.744 14.016a3.84 3.84 0 0 0 1.6 0.384h0.128l42.496-25.152c-1.024-2.496-5.76-14.976-5.76-28.032 0-38.976 28.864-70.976 65.088-73.024 0.576-3.136 3.392-20.224 3.392-33.152 0-12.992-2.816-30.272-3.392-33.216z m-157.056 97.728a63.808 63.808 0 0 1-63.232-64.384c0-35.648 28.288-64.384 63.232-64.384s63.232 28.736 63.232 64.384a63.808 63.808 0 0 1-63.232 64.384z"  horiz-adv-x="1024" />

    
    <glyph glyph-name="xinxixianshi" unicode="&#59215;" d="M486.4 477.696h68.096V128H486.4V477.696zM512-42.496c239.104 0 426.496 187.904 426.496 426.496S751.104 810.496 512 810.496 85.504 623.104 85.504 384s187.392-426.496 426.496-426.496z m0-85.504C230.4-128 0 102.4 0 384S230.4 896 512 896s512-230.4 512-512-230.4-512-512-512zM520.704 568.32m-51.2 0a51.2 51.2 0 1 1 102.4 0 51.2 51.2 0 1 1-102.4 0Z"  horiz-adv-x="1024" />

    
    <glyph glyph-name="huawuguanli" unicode="&#58920;" d="M184.905143 485.888A181.833143 181.833143 0 0 0 3.364571 667.428571 181.321143 181.321143 0 0 0 184.905143 848.969143 181.321143 181.321143 0 0 0 366.445714 667.428571a181.833143 181.833143 0 0 0-181.540571-181.540571z m0 272.310857c-50.468571 0-90.770286-40.374857-90.770286-90.770286 0-50.468571 40.301714-90.770286 90.697143-90.770285 50.468571 0 90.843429 40.301714 90.843429 90.697143 0 50.468571-41.179429 90.843429-90.770286 90.843428z m589.970286-862.281143a181.833143 181.833143 0 0 0-181.540572 181.540572 181.833143 181.833143 0 0 0 181.540572 181.540571 181.833143 181.833143 0 0 0 181.540571-181.540571 181.833143 181.833143 0 0 0-181.540571-181.540572z m0 272.310857c-50.468571 0-90.770286-40.374857-90.770286-90.770285 0-50.468571 40.301714-90.770286 90.697143-90.770286 49.664 0 90.843429 40.301714 90.843428 90.697143-0.877714 49.664-41.179429 90.843429-90.770285 90.843428zM752.128-104.082286C500.882286-104.082286 53.76 339.675429 4.169143 637.147429a45.494857 45.494857 0 0 0 37.010286 52.077714 45.056 45.056 0 0 0 52.077714-36.937143c41.179429-248.758857 453.851429-665.6 658.870857-665.6 25.234286 0 45.348571-20.187429 45.348571-45.348571 0-25.234286-20.918857-45.421714-45.348571-45.421715zM789.138286 361.472a46.811429 46.811429 0 0 0-38.692572 21.065143 848.457143 848.457143 0 0 1-250.441143 253.805714 45.860571 45.860571 0 0 0-13.385142 62.976 45.860571 45.860571 0 0 0 62.976 13.458286 932.644571 932.644571 0 0 0 277.357714-281.526857 46.08 46.08 0 0 0-14.262857-63.049143 45.202286 45.202286 0 0 0-23.552-6.729143z m173.933714 61.44a45.860571 45.860571 0 0 0-39.497143 22.674286 1024.438857 1024.438857 0 0 1-360.521143 363.885714 45.202286 45.202286 0 0 0-15.945143 62.171429 45.202286 45.202286 0 0 0 62.171429 15.945142 1116.16 1116.16 0 0 0 392.484571-396.653714 45.494857 45.494857 0 0 0-38.692571-68.022857z"  horiz-adv-x="1024" />

    
    <glyph glyph-name="badreviewstatistics" unicode="&#59013;" d="M316.608 376.68266700000004c-20.245333 0-36.672-16.512-36.693333-36.885334l0.021333-110.506666c0-20.373333 16.426667-36.885333 36.693333-36.885334 20.245333 0 36.672 16.490667 36.672 36.864l0.021334 110.528c0 20.373333-16.448 36.885333-36.714667 36.885334z m147.904 185.365333c-20.437333 0-36.970667-16.554667-36.970667-36.970667V229.33333300000004a36.970667 36.970667 0 1 1 73.941334 0V525.098667c0 20.416-16.554667 36.949333-36.970667 36.949333z m147.882667-111.402667c-20.266667-0.021333-36.693333-16.512-36.693334-36.885333v-184.469333c0-20.373333 16.426667-36.885333 36.693334-36.885334s36.693333 16.490667 36.693333 36.864v184.469334c0 20.373333-16.426667 36.906667-36.693333 36.906666zM825.877333-30.997333000000026H200.576a102.698667 102.698667 0 0 0-102.592 102.592V696.896a102.698667 102.698667 0 0 0 102.592 102.592h277.952a35.989333 35.989333 0 0 0 0-72.021333H200.576c-16.874667 0-30.592-13.717333-30.592-30.592v-625.301334c0-16.874667 13.717333-30.592 30.592-30.592h625.301333c16.874667 0 30.592 13.717333 30.592 30.592V377.194667a36.010667 36.010667 0 0 0 72.021334 0v-305.6a102.741333 102.741333 0 0 0-102.613334-102.592zM605.696 761.877333c0 17.664 14.314667 31.978667 31.978667 31.978667h47.978666v-191.872h-47.978666a31.978667 31.978667 0 0 0-31.978667 31.978667V761.877333z m285.866667 7.744l31.978666-127.914666a32 32 0 0 0-31.04-39.722667h-81.258666l10.901333-76.266667a45.226667 45.226667 0 0 0-44.8-51.648h-0.021333a45.226667 45.226667 0 0 0-44.010667 34.773334l-33.386667 93.141333h-6.314666V793.856h166.912c14.698667 0 27.477333-9.984 31.04-24.234667z m0 0"  horiz-adv-x="1024" />

    
    <glyph glyph-name="yewuduanmorentouxian" unicode="&#59299;" d="M506.368 365.056c146.944 0 266.24 117.76 266.24 262.656s-119.296 262.656-266.24 262.656-266.24-117.76-266.24-262.656 119.296-262.656 266.24-262.656z m105.984-46.592h-199.68c-185.344 0-335.872-148.48-335.872-331.264v-19.968C76.8-128 225.28-128 412.672-128h199.168c180.224 0 335.872 0 335.872 95.232v19.968c0.512 182.272-150.528 331.264-335.36 331.264z"  horiz-adv-x="1024" />

    
    <glyph glyph-name="qiyerenzheng1" unicode="&#59312;" d="M860.672 528.896V733.184h-204.288L512 877.568 367.616 733.184h-204.8v-204.8L18.432 384l144.384-144.896v-204.288h204.8l144.384-144.384 144.896 145.408h204.288v204.288l144.384 144.384-144.896 144.384zM384 341.504H298.496V426.496H384v-84.992z m170.496 0H469.504V426.496h85.504v-84.992z m171.008 0H640V426.496h85.504v-84.992z"  horiz-adv-x="1024" />

    
    <glyph glyph-name="qiyerenzheng2" unicode="&#59313;" d="M860.672 528.896V733.184h-204.288L512 877.568 367.616 733.184h-204.8v-204.8L18.432 384l144.384-144.896v-204.288h204.8l144.384-144.384 144.896 145.408h204.288v204.288l144.384 144.384-144.896 144.384z m-302.592-373.76H476.16v81.92h81.92v-81.92z m3.072 326.656l-20.992-216.576h-46.08l-21.504 216.576V582.144h88.576v-100.352z"  horiz-adv-x="1024" />

    
    <glyph glyph-name="buliangpingjiashezhi" unicode="&#59382;" d="M898.048 503.808c-7.68 25.088-17.408 49.664-29.696 72.704 42.496 48.128 40.448 120.832-4.096 166.912-22.016 22.528-52.224 34.816-83.968 34.816-29.696 0-58.368-11.264-80.384-31.744-22.528 12.288-46.592 22.528-71.68 30.208 1.024 66.048-52.224 119.296-117.76 119.296S392.192 842.752 392.192 777.216c-25.088-7.68-48.64-17.92-71.68-30.208-22.016 20.48-50.688 31.744-80.384 31.744-31.744 0-62.464-12.288-84.48-35.328-44.032-46.592-45.056-118.784-3.072-166.4-12.288-23.552-22.016-47.616-29.696-72.704-66.56-6.656-115.712-66.048-108.544-133.12 5.632-57.344 51.2-102.912 108.544-108.544 7.68-25.088 17.408-49.664 29.696-72.704-43.008-48.128-41.984-121.344 3.072-167.936 22.016-22.528 52.736-35.328 84.48-35.328 29.696 0 58.368 11.264 80.384 31.744 22.528-12.288 46.592-22.528 71.68-30.208 3.072-63.488 55.296-114.176 118.784-115.2 11.264 0 23.04 2.048 33.792 5.632 18.944 6.144 29.184 26.624 23.04 45.568-0.512 2.048-1.536 3.584-2.048 5.12-7.168 15.36-24.576 23.552-40.96 18.944-4.608-1.536-9.216-2.56-14.336-2.56-25.6 0.512-46.08 20.992-47.104 46.08l-2.048 51.2-48.64 14.848c-20.48 6.144-39.936 14.336-58.88 24.064l-44.032 24.064-37.376-34.304c-8.704-8.192-20.48-12.8-32.256-12.8-12.288 0-24.576 5.12-33.28 13.824-17.92 18.432-18.432 48.128-0.512 67.072l33.792 37.888-24.064 45.056c-10.24 18.944-17.92 39.424-24.064 59.904l-14.336 48.64-49.152 2.56c-26.624 0-48.64 22.016-48.64 48.64s22.016 48.64 48.64 48.64l50.176 2.56 14.336 48.64c6.144 20.992 14.336 40.96 24.064 59.904l24.064 45.056-34.304 37.888c-17.408 18.944-16.896 48.128 1.024 66.56 8.704 8.704 20.992 13.824 33.28 13.824 11.776 0 23.552-4.608 32.256-12.8l37.376-34.304 44.032 24.064c18.944 9.728 38.4 17.92 58.88 24.064l48.64 14.848 2.56 51.2c0 26.112 20.992 47.104 47.104 47.104s47.104-20.992 47.104-47.104l2.048-50.688 48.64-14.848c20.48-6.144 39.936-14.336 58.88-24.064l44.032-24.064 36.864 33.792c8.704 8.192 20.48 12.8 32.256 12.8 12.288 0 24.576-5.12 33.28-13.824 17.92-18.432 18.432-47.104 1.024-66.56l-33.792-37.888 24.064-45.056c10.24-18.944 17.92-39.424 24.064-59.904l14.336-48.64 49.152-2.56c26.624-2.048 46.592-25.6 45.056-52.224-0.512-8.192-3.584-16.384-8.192-23.552-11.264-14.336-9.216-34.816 5.12-46.592 1.024-0.512 2.048-1.536 3.072-2.048l7.168-4.608c13.824-8.704 32.256-4.608 41.984 8.704 39.424 54.272 27.648 130.048-26.624 169.984-18.944 13.824-40.448 21.504-63.488 23.04zM530.944 542.72C593.92 533.504 645.12 486.912 660.48 424.96c5.632-23.04 6.144-47.104 1.536-70.656-3.584-15.872 3.072-32.256 16.896-40.448 16.896-9.728 38.912-3.584 48.64 13.312 2.048 3.584 3.584 7.168 4.096 11.264 6.656 32.256 6.656 65.024 0 97.28-26.624 122.368-147.968 199.68-270.336 173.056-117.76-26.112-195.072-140.288-174.592-260.096 14.336-93.696 85.504-168.96 178.176-189.44 20.48-4.096 40.96-5.632 61.952-4.096 19.968 1.536 35.328 19.456 33.792 39.424-1.536 19.968-19.456 35.328-39.424 33.792-27.136-2.048-53.76 3.584-77.824 16.384-46.592 23.04-78.336 67.584-86.016 118.784-12.8 85.504 46.08 165.376 131.584 178.688 13.312 2.048 27.648 2.048 41.984 0.512zM706.048-126.464c-3.072 0-5.632 0.512-8.704 1.024-32.256 6.656-46.08 25.6-58.88 54.784-7.168 16.384-22.016 58.88-35.328 96.768h-25.088v284.672h265.216c35.84 0 65.536-29.184 66.56-65.024l21.504-173.568v-1.536c0-49.152-28.672-66.56-55.808-66.56h-90.112l0.512-1.536c13.312-53.76-8.192-86.528-22.016-101.376-15.872-16.896-38.912-27.648-57.856-27.648zM660.48 61.44c22.016-61.952 37.888-103.936 41.472-112.128 2.048-5.12 5.632-7.168 7.68-7.68 5.12 3.584 18.432 15.872 13.824 36.352l-23.552 93.184h163.328l-21.504 171.008h-181.76V61.44z"  horiz-adv-x="1024" />

    


  </font>
</defs>
</svg>
